<?xml version="1.0" standalone="no"?>
<!DOCTYPE svg PUBLIC "-//W3C//DTD SVG 1.1//EN" "http://www.w3.org/Graphics/SVG/1.1/DTD/svg11.dtd" >
<svg xmlns="http://www.w3.org/2000/svg" xmlns:xlink="http://www.w3.org/1999/xlink" version="1.1">
<metadata>
Created by FontForge 20190801 at Thu Aug 10 00:30:27 2023
 By root
Copyright (c) 2023 by Craft Supply Co.  All rights reserved.
</metadata>
<defs>
<font id="Gamilia-Regular" horiz-adv-x="244" >
  <font-face 
    font-family="Gamilia"
    font-weight="400"
    font-stretch="normal"
    units-per-em="1000"
    panose-1="0 0 0 0 0 0 0 0 0 0"
    ascent="800"
    descent="-200"
    x-height="500"
    cap-height="700"
    bbox="-110 -213 1036 980"
    underline-thickness="50"
    underline-position="-125"
    unicode-range="U+000D-FB02"
  />
<missing-glyph horiz-adv-x="250" 
 />
    <glyph glyph-name=".notdef" horiz-adv-x="250" 
 />
    <glyph glyph-name=".null" horiz-adv-x="0" 
 />
    <glyph glyph-name=".null" horiz-adv-x="0" 
 />
    <glyph glyph-name="uni000D" unicode="&#xd;" horiz-adv-x="250" 
 />
    <glyph glyph-name="space" unicode=" " horiz-adv-x="260" 
 />
    <glyph glyph-name="o" unicode="o" horiz-adv-x="529" 
d="M25 250q0 59 17 106.5t48 82t75 53t99 18.5t99 -18.5t75.5 -53t48.5 -82t17 -106.5q0 -58 -17 -106t-48.5 -82.5t-75.5 -53t-99 -18.5t-99 18.5t-75 53t-48 82.5t-17 106zM129 233q7 -55 22 -99.5t36.5 -74.5t48.5 -45t58 -11q32 4 55 25t36.5 55.5t17.5 81t-3 102.5
t-22 100t-36.5 74.5t-49 45t-58.5 10.5t-54 -24.5t-36.5 -55t-17.5 -81.5t3 -103z" />
    <glyph glyph-name="h" unicode="h" horiz-adv-x="532" 
d="M305 10q30 0 45 18.5t15 71.5v258q0 43 -9.5 67.5t-23 36.5t-28.5 14.5t-26 2.5q-30 0 -55 -13.5t-46 -39.5v-326q0 -53 15 -71.5t45 -18.5v-10h-220v10q30 0 45 18.5t15 71.5v480q0 53 -15 71.5t-45 18.5v10l150 50h10v-288q28 35 64.5 51.5t72.5 16.5q68 0 109.5 -40
t41.5 -132v-238q0 -53 15 -71.5t45 -18.5v-10h-220v10z" />
    <glyph glyph-name="n" unicode="n" horiz-adv-x="532" 
d="M305 10q30 0 45 18.5t15 71.5v258q0 43 -9.5 67.5t-23 36.5t-28.5 14.5t-26 2.5q-30 0 -55 -13.5t-46 -39.5v-326q0 -53 15 -71.5t45 -18.5v-10h-220v10q30 0 45 18.5t15 71.5v260q0 53 -15 71.5t-45 18.5v10l150 50h10v-68q28 35 64.5 51.5t72.5 16.5q68 0 109.5 -40
t41.5 -132v-238q0 -53 15 -71.5t45 -18.5v-10h-220v10z" />
    <glyph glyph-name="i" unicode="i" 
d="M62 645q0 29 18 47t47 18t47 -18t18 -47t-18 -47t-47 -18t-47 18t-18 47zM17 10q30 0 45 18.5t15 71.5v260q0 53 -15 71.5t-45 18.5v10l150 50h10v-410q0 -53 15 -71.5t45 -18.5v-10h-220v10z" />
    <glyph glyph-name="d" unicode="d" horiz-adv-x="511" 
d="M344 43q-14 -26 -38 -39.5t-62 -13.5q-43 0 -83 16t-70 48t-48 81t-18 115t18 115t47 81t66.5 48t77.5 16q33 0 61.5 -15t48.5 -47v132q0 53 -15 71.5t-45 18.5v10l150 50h10v-590q0 -53 15 -71.5t45 -18.5v-10l-150 -50h-10v53zM344 358q-20 75 -56 111t-74 28
q-20 -4 -38 -22t-30.5 -50.5t-17.5 -80.5t1 -111t22 -108t37 -72.5t44 -39t42 -8.5q22 4 39.5 18.5t30.5 43.5v291z" />
    <glyph glyph-name="e" unicode="e" horiz-adv-x="430" 
d="M128 250q0 -5 0.5 -8.5t0.5 -8.5q4 -46 16 -83.5t30 -63.5t41.5 -40.5t49.5 -14.5q32 0 56.5 14.5t41.5 35t27 42.5t13 37h12q-5 -22 -14 -51.5t-28.5 -56t-53 -44.5t-87.5 -18q-45 0 -83.5 18.5t-66 53t-43 82.5t-15.5 106q0 59 13.5 106.5t39 82t62 53t83.5 18.5
q48 0 81.5 -18.5t55 -53t31.5 -82t10 -106.5h-273zM299 260q-1 35 -5 80.5t-14.5 83.5t-31 60.5t-55.5 12.5q-40 -11 -56 -73.5t-10 -163.5h172z" />
    <glyph glyph-name="c" unicode="c" horiz-adv-x="424" 
d="M385 307h-11q-12 60 -29.5 98t-37.5 59.5t-42 28.5t-42 4q-31 -4 -52.5 -25.5t-33 -56.5t-13.5 -81.5t5 -100.5q12 -93 50 -147.5t101 -54.5q31 0 52.5 14.5t35.5 35t22.5 42.5t12.5 37h11q-6 -25 -15.5 -55t-29 -55t-52 -42t-83.5 -17q-47 0 -85.5 18.5t-66 52.5
t-42.5 82t-15 106q0 59 14.5 106.5t43 82t70 53t96.5 18.5q41 0 74.5 -14.5t59.5 -33.5z" />
    <glyph glyph-name="s" unicode="s" horiz-adv-x="392" 
d="M352 307h-11q-12 60 -31 98t-40.5 59.5t-43 28.5t-39.5 4q-38 -5 -51.5 -23.5t-13.5 -43.5q0 -32 18.5 -57.5t46.5 -47.5t60 -43.5t60 -46.5t46.5 -55t18.5 -70q0 -63 -43 -91.5t-128 -28.5q-20 0 -45 4t-49.5 10.5t-45.5 15.5t-34 18l-2 155h11q12 -60 34 -98t48 -59.5
t52.5 -28.5t46.5 -4q22 3 35 9t20.5 15t10 20t2.5 23q0 33 -18.5 58t-46.5 47t-60 43.5t-60 46.5t-46.5 55t-18.5 70q0 63 45 91.5t123 28.5q18 0 38 -4t40 -10.5t38 -15.5t31 -18z" />
    <glyph glyph-name="a" unicode="a" horiz-adv-x="483" 
d="M323 85q-20 -40 -57 -67.5t-100 -27.5q-30 0 -55 8.5t-43.5 24.5t-29 40t-10.5 55q0 32 14 55t40 40t62 29.5t79 22.5q54 13 76.5 36.5t23.5 58.5q-1 41 -11.5 67.5t-27 42.5t-35.5 22t-36 6q-33 0 -56.5 -21t-41 -50.5t-30 -62.5t-22.5 -57h-11l2 155q26 19 68 33.5
t83 14.5q42 0 81.5 -6.5t69.5 -29.5t48.5 -67.5t18.5 -120.5v-146q0 -53 15 -71.5t45 -18.5v-10l-150 -50h-10v95zM323 294q-24 -18 -57.5 -28.5t-62.5 -18.5q-23 -6 -38 -17t-24 -25t-12.5 -29t-3.5 -29q0 -47 27 -75.5t69 -27.5q45 0 67 19.5t35 48.5v182z" />
    <glyph glyph-name="N" unicode="N" horiz-adv-x="689" 
d="M578 0l-456 611v-491q0 -26 10 -46.5t25 -34.5t32.5 -21.5t32.5 -7.5v-10h-194v10q30 0 55 28.5t25 81.5v480q0 53 -15 71.5t-45 18.5v10h134l396 -530v410q0 26 -10 46.5t-25 34.5t-32.5 21.5t-32.5 7.5v10h194v-10q-30 0 -55 -28.5t-25 -81.5v-580h-14z" />
    <glyph glyph-name="H" unicode="H" horiz-adv-x="708" 
d="M438 10q15 0 29.5 4t25.5 14.5t18 28t7 43.5v270h-328v-270q0 -26 7 -43.5t18 -28t25.5 -14.5t29.5 -4v-10h-242v10q30 0 45 18.5t15 71.5v500q0 53 -15 71.5t-45 18.5v10h242v-10q-15 0 -29.5 -4t-25.5 -14.5t-18 -28t-7 -43.5v-217h328v217q0 26 -7 43.5t-18 28
t-25.5 14.5t-29.5 4v10h242v-10q-30 0 -45 -18.5t-15 -71.5v-500q0 -53 15 -71.5t45 -18.5v-10h-242v10z" />
    <glyph glyph-name="O" unicode="O" horiz-adv-x="696" 
d="M28 350q0 81 22.5 147.5t64 113.5t101 73t132.5 26q74 0 133 -26t100.5 -73t64 -113.5t22.5 -147.5t-22.5 -147.5t-64 -113.5t-100.5 -73t-133 -26q-73 0 -132.5 26t-101 73t-64 113.5t-22.5 147.5zM131 415q0 -38 5 -83t16.5 -90.5t30 -87.5t44.5 -75t60.5 -52.5
t78.5 -19.5q58 0 96.5 31t61 76.5t32 97t9.5 92.5q0 36 -5.5 78.5t-17.5 85.5t-31 83.5t-45.5 72t-61 50.5t-78.5 19q-54 0 -91.5 -26.5t-60.5 -67t-33 -90t-10 -94.5z" />
    <glyph glyph-name="I" unicode="I" horiz-adv-x="278" 
d="M28 10q30 0 45 18.5t15 71.5v500q0 53 -15 71.5t-45 18.5v10h222v-10q-30 0 -45 -18.5t-15 -71.5v-500q0 -53 15 -71.5t45 -18.5v-10h-222v10z" />
    <glyph glyph-name="E" unicode="E" horiz-adv-x="565" 
d="M28 10q30 0 45 18.5t15 71.5v500q0 53 -15 71.5t-45 18.5v10h499v-163h-10q0 15 -8 40.5t-26 49.5t-46.5 42t-69.5 18h-177v-304h157q26 0 43.5 8.5t28 21.5t14.5 29t4 31h10v-193h-10q0 15 -4 31t-14.5 29t-28 21.5t-43.5 8.5h-157v-357h197q41 0 69.5 18t46.5 42
t26 49.5t8 40.5h10v-163h-519v10z" />
    <glyph glyph-name="D" unicode="D" horiz-adv-x="666" 
d="M28 10q30 0 45 18.5t15 71.5v500q0 53 -15 71.5t-45 18.5v10h270q77 0 140 -24.5t107.5 -69.5t68.5 -110t24 -146t-23 -146t-66 -110t-105 -69.5t-139 -24.5h-277v10zM300 14q62 4 106.5 26.5t73 60t42 89t13.5 113.5q0 66 -14 134.5t-46.5 124t-86 90.5t-132.5 35h-66
v-674h52z" />
    <glyph glyph-name="A" unicode="A" horiz-adv-x="680" 
d="M403 10q15 0 29.5 4t24.5 14.5t12.5 28t-6.5 43.5l-28 84l-275 1l-21 -58q-11 -29 -4.5 -51t21.5 -36.5t34 -22t34 -7.5v-10h-214v10q30 0 61.5 29t53.5 88l25 68v3h1l145 395l-10 30q29 21 43.5 40.5t22.5 48.5h11l207 -612q17 -52 43.5 -71t56.5 -19v-10h-267v10z
M430 197l-127 376l-138 -375z" />
    <glyph glyph-name="C" unicode="C" horiz-adv-x="591" 
d="M534 429h-10q-16 78 -39 129.5t-50 81.5t-55.5 42t-55.5 12q-39 0 -75 -24t-63 -65t-42.5 -96.5t-14.5 -118.5q0 -35 7 -74t21 -77.5t35 -73t48.5 -61t62 -42.5t75.5 -16q47 0 79.5 20t53.5 48.5t32.5 59t17.5 51.5h14q-8 -35 -20.5 -76t-38 -76t-67 -58.5t-107.5 -23.5
q-70 0 -128 25.5t-99 73t-64 113.5t-23 147t22 147.5t63 113.5t99.5 73t130.5 26q57 0 104.5 -20t83.5 -46z" />
    <glyph glyph-name="S" unicode="S" horiz-adv-x="552" 
d="M495 429h-10q-16 75 -43.5 126t-61 81.5t-69 44t-66.5 13.5q-19 0 -38 -5.5t-34 -17t-24.5 -28t-9.5 -37.5q0 -37 28 -68t70.5 -60.5t92 -60.5t92 -67.5t70.5 -81.5t28 -103q0 -46 -18 -79t-49 -54.5t-72 -31.5t-88 -10q-32 0 -69.5 5.5t-73.5 14.5t-66.5 21t-48.5 25
l-3 215h10q16 -76 46.5 -126.5t67.5 -81t76.5 -43.5t72.5 -13q23 0 46 7t41 21t29.5 34t11.5 46q0 49 -28 87t-70.5 71.5t-92 64t-92 63.5t-70.5 70.5t-28 84.5q0 41 15.5 70t43.5 48t65.5 27.5t80.5 8.5q31 0 65 -5.5t65.5 -14.5t59 -21t45.5 -25z" />
    <glyph glyph-name="b" unicode="b" horiz-adv-x="521" 
d="M77 580q0 53 -15 71.5t-45 18.5v10l150 50h10v-272q14 26 38 39.5t62 13.5q44 0 83.5 -16t69.5 -48t48 -81t18 -115t-17.5 -115t-47 -81t-67 -48t-77.5 -16q-35 0 -64 16t-49 51l-87 -68h-10v590zM177 143q20 -75 56 -111t74 -28q34 7 61 55t27 140q0 25 -2.5 56.5
t-9 64.5t-17 65t-26 57t-36.5 40t-49 15q-21 0 -41.5 -16.5t-36.5 -51.5v-286z" />
    <glyph glyph-name="f" unicode="f" horiz-adv-x="334" 
d="M5 10q30 0 45 18.5t15 71.5v390h-50v10h50v30q0 32 3 64.5t17.5 58t43 41.5t79.5 16q33 0 60.5 -14.5t53.5 -33.5l2 -155h-11q-19 60 -34.5 98t-29.5 59t-29 28t-33 5q-33 -4 -42 -24.5t-6 -48.5t12.5 -61t13.5 -63h70v-10h-70v-390q0 -26 7 -43.5t18 -28t25.5 -14.5
t29.5 -4v-10h-240v10z" />
    <glyph glyph-name="g" unicode="g" horiz-adv-x="516" 
d="M43 320q0 41 15 76t43.5 60.5t68.5 39.5t89 14q26 0 54 -5q12 17 34.5 30.5t48.5 13.5q14 0 25 -1.5t20.5 -5t20 -8.5t23.5 -13l2 -75h-11q-21 31 -34.5 49t-23 27t-16.5 11.5t-15 2.5q-17 0 -34 -10.5t-28 -22.5q71 -17 111.5 -65.5t40.5 -117.5q0 -84 -59 -127.5
t-159 -43.5q-35 0 -67 6q-24 -2 -37.5 -11.5t-13.5 -17.5q0 -9 27 -13.5t67.5 -9t88 -12t88 -22.5t67.5 -40.5t27 -65.5q0 -30 -15.5 -56t-47.5 -45.5t-80.5 -30.5t-114.5 -11q-48 0 -90.5 10t-74 27.5t-50 41.5t-18.5 52q0 24 11.5 45t30.5 37.5t43 28.5t48 19
q-26 7 -42 17t-16 26q0 14 24.5 23.5t51.5 13.5q-58 17 -90.5 57t-32.5 102zM143 307q13 -78 50 -114.5t94 -30.5t79.5 49t8.5 122q-14 78 -50 124t-93 40q-28 -3 -48 -18.5t-31.5 -40.5t-14 -58.5t4.5 -72.5zM169 76q-16 -9 -29 -25t-20.5 -36t-8 -44.5t8.5 -49.5
q3 -8 12 -24t28.5 -31.5t52.5 -25.5t82 -7q37 3 61.5 16t38 31.5t16 40.5t-5.5 42q-11 30 -37.5 48.5t-60 30.5t-70 19.5t-68.5 14.5z" />
    <glyph glyph-name="j" unicode="j" horiz-adv-x="212" 
d="M50 645q0 29 18 47t47 18t47 -18t18 -47t-18 -47t-47 -18t-47 18t-18 47zM-25 -170q26 7 43.5 21t28 35.5t14.5 52t4 71.5v350q0 53 -15 71.5t-45 18.5v10l150 50h10v-480q0 -54 -15.5 -91.5t-41.5 -62t-60.5 -37.5t-72.5 -19v10z" />
    <glyph glyph-name="k" unicode="k" horiz-adv-x="520" 
d="M15 10q30 0 45 18.5t15 71.5v480q0 53 -15 71.5t-45 18.5v10l150 50h10v-560l148 208q19 27 26.5 48.5t5.5 36t-11.5 22.5t-24.5 8v7h156v-7q-7 0 -22.5 -8.5t-35 -23.5t-41 -37t-40.5 -49l-59 -83l152 -221q21 -31 43.5 -47.5t44.5 -16.5v-7h-217v7q22 0 25 16.5
t-18 47.5l-93 133l-39 -55v-49q0 -53 13.5 -71.5t36.5 -18.5v-10h-210v10z" />
    <glyph glyph-name="l" unicode="l" 
d="M17 10q30 0 45 18.5t15 71.5v480q0 53 -15 71.5t-45 18.5v10l150 50h10v-630q0 -53 15 -71.5t45 -18.5v-10h-220v10z" />
    <glyph glyph-name="m" unicode="m" horiz-adv-x="780" 
d="M285 10q30 0 45 18.5t15 71.5v258q0 43 -7 68t-17 37.5t-22 15.5t-21 3q-26 0 -52 -15t-49 -42v-325q0 -53 15 -71.5t45 -18.5v-10h-220v10q30 0 45 18.5t15 71.5v260q0 53 -15 71.5t-45 18.5v10l150 50h10v-69q29 36 67 54t70 18q47 0 76.5 -21t43.5 -66
q29 44 70.5 65.5t77.5 21.5q65 0 98 -41t33 -134v-238q0 -53 15 -71.5t45 -18.5v-10h-220v10q30 0 45 18.5t15 71.5v258q0 43 -7 68t-17 37.5t-22 15.5t-21 3q-29 0 -57 -17.5t-52 -49.5q4 -17 6 -35.5t2 -41.5v-238q0 -53 15 -71.5t45 -18.5v-10h-220v10z" />
    <glyph glyph-name="p" unicode="p" horiz-adv-x="521" 
d="M177 457q14 26 38 39.5t62 13.5q44 0 83.5 -16t69.5 -48t48 -81t18 -115t-17.5 -115t-47 -81t-67 -48t-77.5 -16q-33 0 -61.5 15t-48.5 47v-132q0 -26 7 -43.5t18 -28t25.5 -14.5t29.5 -4v-10h-240v10q30 0 45 18.5t15 71.5v440q0 53 -15 71.5t-45 18.5v10l150 50h10v-53
zM177 142q20 -75 56 -111t74 -28q20 4 38 22t30.5 50.5t17.5 80.5t-1 111t-22 108t-37 72.5t-43.5 39t-42.5 8.5q-22 -4 -39.5 -18.5t-30.5 -43.5v-291z" />
    <glyph glyph-name="q" unicode="q" horiz-adv-x="504" 
d="M264 -180v10q15 0 29.5 4t25.5 14.5t18 28t7 43.5v122q-14 -26 -38 -39.5t-62 -13.5q-43 0 -83 16t-70 48t-48 81t-18 115t18 115t47 81.5t66.5 48.5t77.5 16q35 0 64 -16t49 -52l87 68h10v-590q0 -53 15 -71.5t45 -18.5v-10h-240zM344 357q-20 75 -56 111.5t-74 28.5
q-20 -4 -38 -22t-30.5 -51t-17.5 -81t1 -111t22 -108t37 -72.5t44 -39t42 -8.5q22 4 39.5 18.5t30.5 43.5v291z" />
    <glyph glyph-name="r" unicode="r" horiz-adv-x="385" 
d="M259 510q32 0 60 -14.5t54 -33.5l2 -155h-11q-24 50 -41 86t-30 59t-23 34t-20 11q-21 0 -38.5 -24t-34.5 -66v-307q0 -53 15 -71.5t45 -18.5v-10h-220v10q30 0 45 18.5t15 71.5v260q0 53 -15 71.5t-45 18.5v10l150 50h10v-78q34 78 82 78z" />
    <glyph glyph-name="t" unicode="t" horiz-adv-x="348" 
d="M64 490h-60v10q22 0 48.5 15.5t49 39t37.5 51.5t15 54h10v-160h100v-10h-100v-300q0 -49 5.5 -80.5t16 -48.5t25.5 -23.5t35 -6.5q16 0 30.5 8.5t26.5 21t21 28.5t13 31h11q-6 -25 -15.5 -48.5t-26 -41.5t-40.5 -28.5t-59 -10.5q-75 0 -109 43.5t-34 115.5v340z" />
    <glyph glyph-name="u" unicode="u" horiz-adv-x="532" 
d="M365 60q-28 -35 -64.5 -52.5t-72.5 -17.5q-34 0 -61.5 10t-47.5 31.5t-31 54.5t-11 79v195q0 53 -15 71.5t-45 18.5v10l150 50h10v-365q0 -43 9.5 -68t23 -37.5t28.5 -15.5t26 -3q30 0 55 14.5t46 40.5v284q0 53 -15 71.5t-45 18.5v10l150 50h10v-370q0 -53 15 -71.5
t45 -18.5v-10l-150 -50h-10v70z" />
    <glyph glyph-name="v" unicode="v" horiz-adv-x="511" 
d="M504 500v-10q-30 0 -61 -31t-48 -84l-129 -385h-12l-157 410q-20 53 -40 71.5t-50 18.5v10h228v-10q-30 0 -39.5 -18.5t9.5 -71.5l97 -262l78 237q17 54 3.5 84.5t-43.5 30.5v10h164z" />
    <glyph glyph-name="w" unicode="w" horiz-adv-x="753" 
d="M746 500v-10q-15 0 -32 -8t-33 -23t-29.5 -36t-21.5 -48l-112 -385h-12l-139 413l-121 -413h-12l-138 410q-18 53 -38.5 71.5t-50.5 18.5v10h225v-10q-30 0 -40 -18t9 -72l81 -233l78 257q-15 38 -26 52t-25 14v10h195v-10q-30 0 -40 -18t9 -72l81 -233l62 208
q16 54 1.5 84.5t-44.5 30.5v10h173z" />
    <glyph glyph-name="x" unicode="x" horiz-adv-x="534" 
d="M5 10q15 0 37 9.5t45.5 25t45 36.5t34.5 44l67 115l-87 160q-24 45 -48.5 67.5t-54.5 22.5v10h211v-10q-30 0 -26 -22.5t29 -67.5l44 -78l30 52q13 23 20 43.5t7.5 37t-6.5 26t-22 9.5v10h177v-10q-15 0 -36.5 -9.5t-44 -25.5t-43.5 -37t-35 -44l-40 -65l117 -209
q25 -45 49 -67.5t54 -22.5v-10h-216v10q30 0 25.5 22.5t-28.5 67.5l-69 126l-57 -101q-13 -23 -20.5 -44t-8.5 -36.5t5.5 -25t21.5 -9.5v-10h-177v10z" />
    <glyph glyph-name="y" unicode="y" horiz-adv-x="516" 
d="M516 499v-10q-15 0 -32 -8t-32.5 -23t-29.5 -36t-23 -47l-131 -385q-17 -50 -29 -82.5t-24 -52t-26.5 -27.5t-36.5 -8q-32 0 -60 14.5t-54 33.5l-2 155h11q24 -50 41.5 -85.5t30 -58.5t22.5 -34t20 -11q15 0 25.5 9t20 28t20 48.5t26.5 70.5l-156 410q-20 53 -40 71.5
t-50 18.5v10h228v-10q-30 0 -39.5 -18.5t9.5 -71.5l98 -262l80 237q18 53 3 83.5t-45 30.5v10h175z" />
    <glyph glyph-name="z" unicode="z" horiz-adv-x="438" 
d="M253 13q41 0 69.5 18t46.5 42t26 49.5t8 40.5h10v-163h-388v33l264 454h-84q-41 0 -69.5 -18t-46.5 -42t-26 -49.5t-8 -40.5h-10v163h348v-33l-264 -454h124z" />
    <glyph glyph-name="B" unicode="B" horiz-adv-x="661" 
d="M28 10q30 0 45 18.5t15 71.5v500q0 53 -15 71.5t-45 18.5v10h270q59 0 111.5 -8t92 -27t63 -51t23.5 -79q0 -35 -13 -62t-37 -46t-56.5 -31t-71.5 -18q53 -6 95 -19t71.5 -35t45.5 -54.5t16 -76.5q0 -52 -23 -88.5t-66 -59.5t-105 -34t-139 -11h-277v10zM300 383
q50 0 86 9.5t58.5 27t33 41.5t10.5 53q0 53 -18.5 86.5t-50.5 53t-74 26.5t-89 7h-66v-304h110zM300 13q71 0 119.5 15t76 42t35.5 65t-1 84q-10 49 -32 78.5t-56.5 45.5t-81 21.5t-104.5 5.5h-66v-357h110z" />
    <glyph glyph-name="F" unicode="F" horiz-adv-x="525" 
d="M28 10q30 0 45 18.5t15 71.5v500q0 53 -15 71.5t-45 18.5v10h489v-163h-10q0 15 -8 40.5t-26 49.5t-46.5 42t-69.5 18h-167v-304h147q26 0 43.5 8.5t28 21.5t14.5 29t4 31h10v-193h-10q0 15 -4 31t-14.5 29t-28 21.5t-43.5 8.5h-147v-270q0 -26 7 -43.5t18 -28
t25.5 -14.5t29.5 -4v-10h-242v10z" />
    <glyph glyph-name="G" unicode="G" horiz-adv-x="643" 
d="M534 429h-10q-16 78 -39.5 129t-50.5 81.5t-55.5 42.5t-55.5 12q-40 0 -75.5 -24t-61.5 -66t-41.5 -98t-15.5 -119q0 -30 5.5 -69.5t17 -81.5t29 -82t41.5 -72t54 -51.5t67 -19.5q65 0 96 43t32 111v85q0 26 -10 43.5t-25 28t-32.5 14.5t-32.5 4v10h262v-10
q-30 0 -45 -18.5t-15 -71.5v-249l-10 -1l-82 86q-7 -19 -18.5 -36.5t-28 -31t-39.5 -21t-53 -7.5q-75 0 -133.5 26t-98.5 73t-61 113.5t-21 147.5t22 147.5t63 113.5t99.5 73t130.5 26q57 0 104.5 -20t83.5 -46z" />
    <glyph glyph-name="J" unicode="J" horiz-adv-x="275" 
d="M-14 -170q34 7 55.5 21t33.5 35.5t16.5 52t4.5 71.5v590q0 53 -15 71.5t-45 18.5v10h222v-10q-30 0 -45 -18.5t-15 -71.5v-570q0 -59 -16 -97t-44.5 -61t-67 -34.5t-84.5 -17.5v10z" />
    <glyph glyph-name="K" unicode="K" horiz-adv-x="640" 
d="M28 10q30 0 45 18.5t15 71.5v500q0 53 -15 71.5t-45 18.5v10h222v-10q-30 0 -45 -18.5t-15 -71.5v-362l248 350q18 25 20.5 44t-4.5 32t-20.5 19.5t-28.5 6.5v10h187v-10q-30 0 -66 -27.5t-72 -78.5l-125 -175l198 -309q29 -45 54.5 -67.5t55.5 -22.5v-10h-236v10
q30 0 34.5 23t-24.5 67l-146 219l-75 -106v-113q0 -53 15 -71.5t45 -18.5v-10h-222v10z" />
    <glyph glyph-name="L" unicode="L" horiz-adv-x="537" 
d="M527 0h-499v10q30 0 45 18.5t15 71.5v500q0 53 -15 71.5t-45 18.5v10h242v-10q-15 0 -29.5 -4t-25.5 -14.5t-18 -28t-7 -43.5v-587h177q41 0 69.5 18t46.5 42t26 49.5t8 40.5h10v-163z" />
    <glyph glyph-name="M" unicode="M" horiz-adv-x="909" 
d="M881 700v-10q-30 0 -45 -18.5t-15 -71.5v-500q0 -53 15 -71.5t45 -18.5v-10h-262v10q15 0 32.5 4t32.5 14.5t25 28t10 43.5v563l-282 -673h-14l-301 613v-483q0 -26 13 -46.5t32 -34.5t39.5 -21.5t35.5 -7.5v-10h-214v10q30 0 55 28.5t25 81.5v480q0 53 -15 71.5
t-45 18.5v10h136l291 -591l244 591h162z" />
    <glyph glyph-name="P" unicode="P" horiz-adv-x="603" 
d="M28 10q30 0 45 18.5t15 71.5v500q0 53 -15 71.5t-45 18.5v10h270q59 0 111.5 -11t92 -34t63 -58t23.5 -82q0 -46 -22.5 -80.5t-60.5 -58t-89.5 -35t-110.5 -11.5h-115v-230q0 -26 7 -43.5t18 -28t25.5 -14.5t29.5 -4v-10h-242v10zM300 343q52 3 87.5 16.5t57.5 34.5
t31.5 48t9.5 58q0 52 -18 88t-49.5 58t-73.5 31.5t-89 9.5h-66v-344h110z" />
    <glyph glyph-name="Q" unicode="Q" horiz-adv-x="696" 
d="M28 350q0 81 22.5 147.5t64 113.5t101 73t132.5 26q74 0 133 -26t100.5 -73t64 -113.5t22.5 -147.5q0 -68 -16 -125.5t-46 -102.5t-73 -76t-97 -45q25 -26 49 -41.5t49 -15.5q19 0 34 7t29 22t27.5 38t28.5 54h10q-10 -78 -23.5 -122.5t-29 -66t-34.5 -27t-41 -5.5
q-28 0 -53 11.5t-47.5 31.5t-43 46.5t-39.5 56.5q-80 -1 -140.5 27t-101.5 77t-61.5 115t-20.5 141zM191 250q28 0 56.5 -24.5t58 -60.5t59.5 -77.5t61 -75.5q33 9 59 33t44 60.5t27 83.5t9 101q0 38 -5 82.5t-16.5 89t-29.5 86.5t-44.5 74t-61.5 51.5t-81 19.5
q-43 0 -79 -24t-62 -66t-40 -99t-14 -124q0 -36 5.5 -76t17.5 -80q6 26 36 26zM170 183q24 -60 65.5 -106.5t101.5 -62.5q-23 39 -43.5 78.5t-39 71t-35 51t-31.5 19.5q-5 0 -10.5 -2t-8.5 -7.5t-3.5 -15.5t4.5 -26z" />
    <glyph glyph-name="R" unicode="R" horiz-adv-x="641" 
d="M28 10q30 0 45 18.5t15 71.5v500q0 53 -15 71.5t-45 18.5v10h270q59 0 111.5 -8t92 -27t63 -51t23.5 -79q0 -39 -16.5 -68t-45.5 -48.5t-69 -30.5t-87 -15l163 -273q27 -46 52.5 -68t55.5 -22v-10h-242v10q15 0 27 5.5t17.5 16.5t3.5 28t-16 40l-161 270h-80v-270
q0 -26 7 -43.5t18 -28t25.5 -14.5t29.5 -4v-10h-242v10zM300 383q102 7 144 42t42 93q0 55 -18 88.5t-49.5 51.5t-73.5 23.5t-89 5.5h-66v-304h110z" />
    <glyph glyph-name="T" unicode="T" horiz-adv-x="586" 
d="M561 487q0 34 -8.5 69.5t-28 64.5t-52 47.5t-81.5 18.5h-47v-587q0 -26 7 -43.5t18 -28t25.5 -14.5t29.5 -4v-10h-262v10q15 0 29.5 4t25.5 14.5t18 28t7 43.5v587h-47q-49 0 -81.5 -18.5t-52 -47.5t-28 -64.5t-8.5 -69.5h-10v213h556v-213h-10z" />
    <glyph glyph-name="U" unicode="U" horiz-adv-x="666" 
d="M571 280q0 -70 -10 -124t-35.5 -91t-68.5 -56t-109 -19q-73 0 -124 16.5t-83 51.5t-46 90t-14 132v320q0 53 -15 71.5t-45 18.5v10h242v-10q-15 0 -29.5 -4t-25.5 -14.5t-18 -28t-7 -43.5v-320q0 -48 9.5 -94.5t31.5 -83t58.5 -59t91.5 -22.5q58 0 94 18.5t56 52t27 81.5
t7 107v300q0 26 -10 46.5t-25 34.5t-32.5 21.5t-32.5 7.5v10h193v-10q-30 0 -55 -28.5t-25 -81.5v-300z" />
    <glyph glyph-name="V" unicode="V" horiz-adv-x="720" 
d="M278 692q-15 0 -30.5 -4t-25.5 -14.5t-12.5 -28t8.5 -43.5l195 -465l150 418q14 38 10.5 64t-15.5 42t-29.5 23.5t-32.5 7.5v10h214v-10q-15 0 -32.5 -7.5t-35.5 -23.5t-34.5 -42t-30.5 -64l-203 -565h-14l1 3l-251 609q-21 51 -45.5 70.5t-54.5 19.5v10h268v-10z" />
    <glyph glyph-name="W" unicode="W" horiz-adv-x="1010" 
d="M278 692q-15 0 -29.5 -4t-24 -14t-12.5 -27.5t6 -44.5l141 -437l131 434l-1 3q-9 26 -20 43.5t-23.5 28t-27 14.5t-29.5 4v10h288v-10q-15 0 -32.5 -4t-31 -14t-19.5 -27.5t3 -44.5l140 -435l116 388q11 38 7.5 64t-15 42.5t-28 23.5t-31.5 7v10h214v-10q-15 0 -33.5 -7
t-37 -23.5t-35 -42.5t-27.5 -64l-168 -565h-14l-188 587l-178 -587h-14l1 3l-196 609q-9 26 -20 43.5t-23.5 28t-27 14.5t-29.5 4v10h268v-10z" />
    <glyph glyph-name="X" unicode="X" horiz-adv-x="677" 
d="M431 10q30 0 33 22.5t-23 67.5l-132 229l-118 -181q-22 -34 -28 -60t-1.5 -43.5t17.5 -26t28 -8.5v-10h-197v10q30 0 74.5 34t89.5 103l127 195l-149 258q-52 90 -110 90v10h235v-10q-62 0 -10 -90l108 -186l88 140q19 30 24.5 55t1 43t-16.5 28t-27 10v10h197v-10
q-15 0 -35 -10t-42 -28t-44 -43t-41 -55l-97 -153l174 -301q52 -90 110 -90v-10h-236v10z" />
    <glyph glyph-name="Y" unicode="Y" horiz-adv-x="717" 
d="M246 690q-59 0 -10 -90l170 -310l139 267q19 36 24.5 61.5t2 41.5t-15 23t-26.5 7v10h177v-10q-30 0 -69.5 -31.5t-77.5 -104.5l-141 -268v-186q0 -26 7 -43.5t18 -28t25.5 -14.5t29.5 -4v-10h-262v10q15 0 29.5 4t25.5 14.5t18 28t7 43.5v147l-197 353q-50 90 -110 90
v10h236v-10z" />
    <glyph glyph-name="Z" unicode="Z" horiz-adv-x="552" 
d="M366 13q41 0 69.5 18t46.5 42t26 49.5t8 40.5h10v-163h-496v43l377 644h-197q-41 0 -69.5 -18t-46.5 -42t-26 -49.5t-8 -40.5h-10v163h456v-43l-377 -644h237z" />
    <glyph glyph-name="period" unicode="." horiz-adv-x="212" 
d="M27 69q0 35 22 57t57 22t57 -22t22 -57t-22 -57t-57 -22t-57 22t-22 57z" />
    <glyph glyph-name="comma" unicode="," horiz-adv-x="222" 
d="M27 69q0 35 22 57t57 22t62 -24.5t27 -76.5q0 -111 -133 -215h-13q18 25 36.5 52t29 50t10.5 38.5t-19 17.5q-35 4 -57 24t-22 55z" />
    <glyph glyph-name="zero" unicode="0" horiz-adv-x="616" 
d="M28 350q0 81 19 147.5t55 113.5t88 73t118 26t118 -26t88 -73t55 -113.5t19 -147.5t-19 -147.5t-55 -113.5t-88 -73t-118 -26t-118 26t-88 73t-55 113.5t-19 147.5zM136 324q10 -77 30.5 -139t49 -104t63 -61.5t71.5 -11.5q38 8 66.5 37.5t45.5 77.5t22 112t-4 141
q-10 77 -30.5 139t-49 104t-62.5 61.5t-72 11.5q-37 -8 -66 -37.5t-46 -77.5t-22 -112t4 -141z" />
    <glyph glyph-name="one" unicode="1" horiz-adv-x="346" 
d="M17 10q15 0 34 4t36 14.5t28.5 28t11.5 43.5v460q0 53 -17 71.5t-62 18.5v10l171 50h10v-610q0 -26 11.5 -43.5t28.5 -28t36 -14.5t34 -4v-10h-322v10z" />
    <glyph glyph-name="two" unicode="2" horiz-adv-x="541" 
d="M521 0h-504v100q0 50 25.5 93.5t65 82t87.5 74.5t92 71.5t78.5 71t47.5 74.5q9 26 -0.5 49.5t-30.5 41.5t-50 28.5t-59 10.5q-52 0 -88.5 -26t-61 -65.5t-39 -87t-23.5 -89.5h-10l3 215q18 13 45.5 25t59 21t65.5 14.5t65 5.5q44 0 83 -8.5t68 -27.5t46.5 -48t17.5 -70
q0 -60 -35 -105t-88 -80.5t-114 -65.5t-114 -60.5t-88 -65t-35 -79.5h331q41 0 69.5 18t46.5 42t26 49.5t8 40.5h10v-250z" />
    <glyph glyph-name="three" unicode="3" horiz-adv-x="572" 
d="M209 383q60 0 99 13.5t60 37.5t26 56.5t-3 70.5q-9 43 -26.5 70.5t-40 42.5t-48 19t-51.5 1q-23 -3 -47.5 -18t-48 -46t-44 -80t-35.5 -121h-10l3 215q36 26 91 46t125 20q10 0 31 -0.5t47.5 -5.5t54.5 -15.5t51.5 -29.5t38.5 -49.5t15 -74.5q0 -35 -13 -61.5
t-36.5 -45.5t-56.5 -31.5t-72 -18.5q53 -6 95 -19t71.5 -35t45.5 -54.5t16 -76.5q0 -50 -17.5 -84.5t-45 -57t-61.5 -35t-66.5 -18.5t-60 -7t-42.5 -1q-35 0 -68.5 5.5t-63.5 14.5t-55.5 21t-43.5 25l-3 215h10q13 -63 43.5 -111t68.5 -81t80 -49.5t79 -16.5q19 0 37 5
q26 8 48 21t36 36t19.5 58t-2.5 86q-7 49 -28.5 79t-54 46t-73.5 21t-88 5h-6v13h20z" />
    <glyph glyph-name="four" unicode="4" horiz-adv-x="547" 
d="M238 10q15 0 29.5 4t25.5 14.5t18 28t7 43.5v137h-313v13l402 460h13v-460h2q23 0 41 8.5t31.5 22.5t20.5 32t7 37h10v-113h-112v-137q0 -53 15 -71.5t45 -18.5v-10h-242v10zM318 250v340l-295 -340h295z" />
    <glyph glyph-name="five" unicode="5" horiz-adv-x="546" 
d="M492 450q0 15 -8 40.5t-26 49.5t-46.5 42t-69.5 18h-255l-34 -204q50 48 104.5 69.5t108.5 21.5q51 0 97.5 -18t82 -50t56 -75.5t20.5 -95.5q0 -76 -23 -125.5t-59.5 -79t-81 -41.5t-88.5 -12q-31 0 -66.5 5.5t-69 14.5t-62.5 21t-47 25l-3 215h10q17 -83 41 -132.5
t50 -77t51 -38t44 -15.5q13 -4 29 -4q30 0 58.5 15.5t51.5 47t37 79.5t14 112q0 35 -14 70t-38.5 63t-59.5 45.5t-77 17.5q-38 0 -80.5 -17t-88.5 -56h-14l54 319h412v-250h-10z" />
    <glyph glyph-name="six" unicode="6" horiz-adv-x="619" 
d="M27 297q-7 101 15.5 178t67 129.5t107 79t134.5 26.5q57 0 104.5 -20t83.5 -46l3 -175h-10q-17 68 -42.5 112.5t-55 70.5t-60.5 35t-59 6q-79 -10 -128 -89t-60 -218q42 44 87.5 60.5t99.5 16.5q66 0 118 -17.5t88 -49t55 -75.5t19 -97t-19 -96.5t-55 -74t-88 -47.5
t-118 -17q-133 0 -204.5 73.5t-82.5 234.5zM132 207q10 -50 32 -90t52 -67t66 -39t73 -7q38 5 66.5 23.5t46 49.5t22.5 72.5t-4 91.5q-10 51 -30.5 91.5t-49 68t-62.5 40t-72 7.5q-37 -5 -67.5 -24.5t-49.5 -51t-25.5 -73.5t2.5 -92z" />
    <glyph glyph-name="seven" unicode="7" horiz-adv-x="534" 
d="M25 700h484v-100q-10 -69 -33 -116.5t-51.5 -85.5t-59.5 -73t-56 -78.5t-41.5 -102t-16.5 -144.5h-101q0 86 23 146t58 105t77 81.5t80.5 74.5t68 83.5t39.5 109.5h-311q-41 0 -69.5 -18t-46.5 -42t-26 -49.5t-8 -40.5h-10v250z" />
    <glyph glyph-name="eight" unicode="8" horiz-adv-x="580" 
d="M555 178q0 -53 -25.5 -88.5t-64.5 -57.5t-87 -31t-93 -9t-91 10.5t-83.5 33t-61.5 58t-24 84.5q0 44 21.5 73t51.5 47t61.5 27t50.5 12q-29 12 -55 27t-46 36t-32 50.5t-12 69.5q0 54 20.5 90.5t53.5 58.5t74 31.5t82 9.5t80.5 -10.5t70.5 -33.5t50 -59t19 -87
q0 -34 -11 -58.5t-28 -42t-37.5 -28.5t-38.5 -17q30 -12 58 -28t49.5 -39t34.5 -54.5t13 -74.5zM377 383q16 12 28 30t18 41.5t5 51t-11 58.5q-21 69 -64.5 103t-103.5 26q-35 -5 -63 -26.5t-42 -51.5t-11 -64t30 -65q20 -23 50 -38.5t75 -32.5q20 -8 43 -16zM223 331
q-22 -8 -44 -26t-36.5 -43.5t-19.5 -58t5 -69.5q10 -36 30.5 -62.5t47.5 -42t59.5 -21t65.5 0.5q38 6 71.5 27.5t54 50.5t23.5 62.5t-20 64.5q-15 19 -35 32.5t-43 24t-47 18.5t-47 17q-16 7 -32 13t-33 12z" />
    <glyph glyph-name="nine" unicode="9" horiz-adv-x="620" 
d="M590 402q7 -101 -15.5 -178t-67 -129.5t-107 -79t-134.5 -26.5q-57 0 -104.5 20t-83.5 46l-3 175h10q17 -68 42.5 -112.5t55 -70.5t60.5 -35t59 -6q79 10 128 89t60 218q-42 -44 -87.5 -60.5t-99.5 -16.5q-66 0 -118 17.5t-88 49t-55 75.5t-19 97t19 96.5t55 74t88 47.5
t118 17q133 0 204.5 -73.5t82.5 -234.5zM485 492q-10 50 -32 90t-52 67t-65.5 39t-73.5 7q-37 -5 -66 -23.5t-46.5 -49.5t-22.5 -72.5t4 -91.5q10 -51 30.5 -91.5t49 -68t63 -40t71.5 -7.5q38 5 68 24.5t49 51t25.5 73.5t-2.5 92z" />
    <glyph glyph-name="colon" unicode=":" horiz-adv-x="212" 
d="M27 500q0 35 22 57t57 22t57 -22t22 -57t-22 -57t-57 -22t-57 22t-22 57zM27 200q0 35 22 57t57 22t57 -22t22 -57t-22 -57t-57 -22t-57 22t-22 57z" />
    <glyph glyph-name="semicolon" unicode=";" horiz-adv-x="222" 
d="M27 500q0 35 22 57t57 22t57 -22t22 -57t-22 -57t-57 -22t-57 22t-22 57zM27 200q0 35 22 57t57 22t62 -24.5t27 -76.5q0 -111 -133 -215h-13q18 25 36.5 52t29 50t10.5 38.5t-19 17.5q-35 4 -57 24t-22 55z" />
    <glyph glyph-name="quotesingle" unicode="'" horiz-adv-x="222" 
d="M27 631q0 35 22 57t57 22t62 -24.5t27 -76.5q0 -111 -133 -215h-13q18 25 36.5 52t29 50t10.5 38.5t-19 17.5q-35 4 -57 24t-22 55z" />
    <glyph glyph-name="quotedbl" unicode="&#x22;" horiz-adv-x="422" 
d="M27 631q0 35 22 57t57 22t62 -24.5t27 -76.5q0 -111 -133 -215h-13q18 25 36.5 52t29 50t10.5 38.5t-19 17.5q-35 4 -57 24t-22 55zM227 631q0 35 22 57t57 22t62 -24.5t27 -76.5q0 -111 -133 -215h-13q18 25 36.5 52t29 50t10.5 38.5t-19 17.5q-35 4 -57 24t-22 55z" />
    <glyph glyph-name="quoteleft" unicode="&#x2018;" horiz-adv-x="224" 
d="M193 463q0 -35 -22 -57t-57 -22t-62 24.5t-27 76.5q0 111 133 215h13q-18 -25 -36.5 -52t-29 -50t-10.5 -38.5t19 -17.5q35 -4 57 -24t22 -55z" />
    <glyph glyph-name="quoteright" unicode="&#x2019;" horiz-adv-x="224" 
d="M28 631q0 35 22 57t57 22t62 -24.5t27 -76.5q0 -111 -133 -215h-13q18 25 36.5 52t29 50t10.5 38.5t-19 17.5q-35 4 -57 24t-22 55z" />
    <glyph glyph-name="quotedblleft" unicode="&#x201c;" horiz-adv-x="421" 
d="M388 463q0 -35 -22 -57t-57 -22t-62 24.5t-27 76.5q0 111 133 215h13q-18 -25 -36.5 -52t-29 -50t-10.5 -38.5t19 -17.5q35 -4 57 -24t22 -55zM188 463q0 -35 -22 -57t-57 -22t-62 24.5t-27 76.5q0 111 133 215h13q-18 -25 -36.5 -52t-29 -50t-10.5 -38.5t19 -17.5
q35 -4 57 -24t22 -55z" />
    <glyph glyph-name="quotedblright" unicode="&#x201d;" horiz-adv-x="427" 
d="M31 631q0 35 22 57t57 22t62 -24.5t27 -76.5q0 -111 -133 -215h-13q18 25 36.5 52t29 50t10.5 38.5t-19 17.5q-35 4 -57 24t-22 55zM231 631q0 35 22 57t57 22t62 -24.5t27 -76.5q0 -111 -133 -215h-13q18 25 36.5 52t29 50t10.5 38.5t-19 17.5q-35 4 -57 24t-22 55z" />
    <glyph glyph-name="quotesinglbase" unicode="&#x201a;" horiz-adv-x="224" 
d="M28 69q0 35 22 57t57 22t62 -24.5t27 -76.5q0 -111 -133 -215h-13q18 25 36.5 52t29 50t10.5 38.5t-19 17.5q-35 4 -57 24t-22 55z" />
    <glyph glyph-name="quotedblbase" unicode="&#x201e;" horiz-adv-x="424" 
d="M28 69q0 35 22 57t57 22t62 -24.5t27 -76.5q0 -111 -133 -215h-13q18 25 36.5 52t29 50t10.5 38.5t-19 17.5q-35 4 -57 24t-22 55zM228 69q0 35 22 57t57 22t62 -24.5t27 -76.5q0 -111 -133 -215h-13q18 25 36.5 52t29 50t10.5 38.5t-19 17.5q-35 4 -57 24t-22 55z" />
    <glyph glyph-name="bullet" unicode="&#x2022;" horiz-adv-x="250" 
d="M32 350q0 42 25.5 67.5t67.5 25.5t67.5 -25.5t25.5 -67.5t-25.5 -67.5t-67.5 -25.5t-67.5 25.5t-25.5 67.5z" />
    <glyph glyph-name="hyphen" unicode="-" horiz-adv-x="335" 
d="M30 358h275v-15h-275v15z" />
    <glyph glyph-name="plus" unicode="+" horiz-adv-x="406" 
d="M28 358h167v167h15v-167h168v-15h-168v-168h-15v168h-167v15z" />
    <glyph glyph-name="asterisk" unicode="*" horiz-adv-x="260" 
d="M119 596l-92 11l16 48l80 -45l-18 90h50l-18 -90l80 45l16 -48l-92 -11l68 -62l-40 -30l-39 84l-39 -84l-40 30z" />
    <glyph glyph-name="asciicircum" unicode="^" horiz-adv-x="311" 
d="M28 501l120 199h15l120 -199h-15l-112 187l-113 -187h-15z" />
    <glyph glyph-name="tilde" unicode="&#x2dc;" horiz-adv-x="394" 
d="M26 595q0 24 4.5 48t16 43t29.5 30.5t45 11.5q34 0 57.5 -15t42.5 -33.5t35 -33.5t35 -15q23 0 38.5 16t23.5 54h13q0 -24 -4.5 -46.5t-16 -39.5t-29.5 -27t-45 -10q-30 0 -52 13.5t-40.5 30t-36.5 30t-41 13.5t-38.5 -16t-23.5 -54h-13z" />
    <glyph glyph-name="slash" unicode="/" horiz-adv-x="341" 
d="M20 -2l286 704h15l-286 -704h-15z" />
    <glyph glyph-name="backslash" unicode="\" horiz-adv-x="341" 
d="M20 702h15l286 -704h-15z" />
    <glyph glyph-name="less" unicode="&#x3c;" horiz-adv-x="296" 
d="M268 193l-240 150v15l240 150v-17l-225 -140l225 -141v-17z" />
    <glyph glyph-name="equal" unicode="=" horiz-adv-x="331" 
d="M28 408h275v-15h-275v15zM28 308h275v-15h-275v15z" />
    <glyph glyph-name="greater" unicode="&#x3e;" horiz-adv-x="296" 
d="M253 351l-225 140v17l240 -150v-15l-240 -150v17z" />
    <glyph glyph-name="exclam" unicode="!" horiz-adv-x="214" 
d="M100 200l-44 500h102l-44 -500h-14zM28 69q0 35 22 57t57 22t57 -22t22 -57t-22 -57t-57 -22t-57 22t-22 57z" />
    <glyph glyph-name="question" unicode="?" horiz-adv-x="510" 
d="M31 644q18 13 45.5 25t59 21t65.5 14.5t65 5.5q44 0 83 -8.5t69 -27.5t47 -48t16 -70q-1 -46 -19.5 -76.5t-45.5 -53.5t-58 -42t-57.5 -43t-44 -57t-17.5 -84h-14q0 55 14 93.5t34.5 68t43.5 52t41.5 45.5t28 48.5t3.5 59.5q-5 27 -18 50.5t-31.5 41.5t-41.5 28t-50 10
q-15 0 -35 -5q-19 -5 -42.5 -15.5t-47.5 -38t-46.5 -77t-39.5 -132.5h-10zM153 69q0 35 22 57t57 22t57 -22t22 -57t-22 -57t-57 -22t-57 22t-22 57z" />
    <glyph glyph-name="numbersign" unicode="#" horiz-adv-x="753" 
d="M97 0l81 223h-138v15h144l82 225h-165v15h170l81 222h16l-81 -222h273l81 222h16l-81 -222h137v-15h-142l-82 -225h164v-15h-170l-81 -223h-16l81 223h-273l-81 -223h-16zM473 238l82 225h-273l-82 -225h273z" />
    <glyph glyph-name="at" unicode="@" horiz-adv-x="740" 
d="M418 557l109 -36v-7q-22 0 -33 -13.5t-11 -51.5v-164q0 -27 3.5 -55t11 -51t20 -38t30.5 -15q8 0 17 3q17 6 26.5 29.5t14 57t3.5 75.5t-7 85q-10 78 -36 139.5t-62.5 103t-81.5 60.5t-94 13t-88 -35.5t-65 -77.5t-36 -113t-1 -142q10 -77 35.5 -134.5t63 -96t85 -57
t100.5 -18.5q49 0 92 10.5t66 26.5h16q-42 -39 -99 -52t-117 -13q-77 0 -141.5 26t-111 73t-72 113.5t-25.5 147.5t25.5 147.5t71 113.5t108 73t135.5 26q74 0 136 -26t107.5 -73t71 -113.5t25.5 -147.5q0 -52 -10.5 -95.5t-31.5 -75t-54 -48.5t-78 -17q-52 0 -82 33t-39 87
q-10 -23 -28 -34.5t-48 -11.5q-31 0 -60 11.5t-51 34.5t-35 58.5t-13 83.5t13 83t34 58.5t48.5 35t55.5 11.5q24 0 45 -10.5t35 -34.5v38h7zM411 453q-14 54 -40.5 81t-53.5 21q-14 -3 -27 -16t-22 -37t-12.5 -58.5t0.5 -80.5q4 -45 15.5 -77.5t26.5 -52.5t31.5 -28t30.5 -6
q17 3 30 14.5t23 35.5q-1 8 -1.5 17t-0.5 19v168z" />
    <glyph glyph-name="dollar" unicode="$" horiz-adv-x="536" 
d="M265 -111v102q-31 2 -65.5 8t-66.5 15t-58.5 19.5t-43.5 22.5l-3 215h10q14 -66 39 -112.5t56.5 -77.5t65.5 -48t66 -23v310q-39 26 -77.5 51.5t-69.5 53.5t-50.5 60t-19.5 71q0 47 19.5 77t50 47t69.5 23.5t78 6.5v80h15v-81q29 -2 59 -8.5t58 -15t51.5 -19.5t39.5 -22
l3 -215h-10q-13 64 -35.5 110t-49.5 77t-57 48.5t-59 24.5v-243q41 -26 82.5 -54t76 -61.5t56 -74t21.5 -91.5t-20.5 -84.5t-54 -54t-76 -28.5t-85.5 -8v-101h-15zM265 692q-25 3 -48 0q-43 -7 -62.5 -34t-19.5 -52q0 -22 10.5 -41.5t28 -37.5t41 -35.5t50.5 -35.5v236z
M280 8q25 -3 45 0q24 3 43.5 14t33 26t20.5 32.5t7 34.5q0 31 -12 58t-32.5 50.5t-47.5 45t-57 41.5v-302z" />
    <glyph glyph-name="Euro" unicode="&#x20ac;" horiz-adv-x="621" 
d="M0 408h61q8 69 33 124.5t65 95t94 61t120 21.5q57 0 104.5 -20t83.5 -46l3 -215h-10q-17 83 -42.5 136t-55 82.5t-60.5 39t-59 6.5q-40 -5 -72.5 -28t-56 -60.5t-36.5 -87.5t-13 -109h140v-15h-140q0 -21 2 -42.5t6 -42.5h132v-15h-129q12 -57 36.5 -102.5t56.5 -77.5
t69.5 -49.5t75.5 -17.5q47 0 79.5 20t53.5 48.5t32.5 59t17.5 51.5h14q-8 -35 -20.5 -76t-38 -76t-67 -58.5t-107.5 -23.5q-64 0 -117.5 21.5t-94 60.5t-66 95t-33.5 125h-61v15h60q-1 11 -1.5 21t-0.5 21t0.5 21.5t1.5 21.5h-60v15z" />
    <glyph glyph-name="percent" unicode="%" horiz-adv-x="709" 
d="M28 524q0 42 11.5 76.5t31.5 58.5t48.5 37.5t62.5 13.5t62.5 -13.5t48.5 -37.5t31.5 -58.5t11.5 -76.5t-11.5 -76t-31.5 -58t-48.5 -37.5t-62.5 -13.5t-62.5 13.5t-48.5 37.5t-31.5 58t-11.5 76zM103 0l483 700h19l-483 -700h-19zM103 511q11 -80 37 -123t69 -34
q35 8 48.5 56t3.5 128q-11 80 -37 123t-69 34q-35 -7 -48.5 -55.5t-3.5 -128.5zM373 174q0 42 11.5 76.5t31.5 58.5t48.5 37.5t62.5 13.5t62.5 -13.5t48.5 -37.5t31.5 -58.5t11.5 -76.5t-11.5 -76t-31.5 -58t-48.5 -37.5t-62.5 -13.5t-62.5 13.5t-48.5 37.5t-31.5 58
t-11.5 76zM448 161q11 -80 37 -123t69 -34q35 8 48.5 56t3.5 128q-11 80 -37 123t-69 34q-35 -7 -48.5 -55.5t-3.5 -128.5z" />
    <glyph glyph-name="ampersand" unicode="&#x26;" horiz-adv-x="684" 
d="M275 -8q-41 0 -84.5 11t-79 34t-58.5 60.5t-23 89.5q0 43 21.5 71t50.5 45t58.5 24.5t46.5 10.5l-61 67q-54 60 -63.5 115.5t13 97.5t70.5 67t109 25q38 0 76 -11t69 -34t50.5 -60t19.5 -90q0 -41 -18 -70.5t-43 -49.5t-52.5 -30.5t-47.5 -14.5l185 -199q10 26 10 58
q0 39 -9.5 69t-38.5 43v9l129 1q-10 -55 -26.5 -106.5t-43.5 -96.5l119 -128h-143l-45 50q-35 -27 -82 -42.5t-109 -15.5zM322 357q23 10 41 30.5t28.5 47.5t11.5 59t-9 65q-23 72 -68 107t-97 27q-38 -6 -57.5 -21t-25 -35t0.5 -44t19 -49t31.5 -49t37.5 -44zM213 331
q-22 -8 -41 -25.5t-31.5 -42.5t-16 -55.5t5.5 -64.5q20 -69 65 -101.5t105 -32.5q42 0 81.5 14t71.5 41z" />
    <glyph glyph-name="parenleft" unicode="(" horiz-adv-x="299" 
d="M256 -111q-113 116 -169.5 223t-56.5 212.5t56.5 212.5t169.5 223h13q-69 -116 -103 -223t-34 -212.5t34 -212.5t103 -223h-13z" />
    <glyph glyph-name="parenright" unicode=")" horiz-adv-x="299" 
d="M30 -111q69 116 103 223t34 212.5t-34 212.5t-103 223h13q113 -116 169.5 -223t56.5 -212.5t-56.5 -212.5t-169.5 -223h-13z" />
    <glyph glyph-name="braceleft" unicode="{" horiz-adv-x="325" 
d="M95 636q0 65 29.5 94.5t94.5 29.5h76v-13h-10q-50 0 -70 -20t-20 -70v-215q0 -49 -21 -78t-80 -40q59 -10 80 -38.5t21 -78.5v-215q0 -50 20 -70t70 -20h10v-13h-76q-65 0 -94.5 29.5t-29.5 94.5v215q0 50 -16.5 70t-43.5 20h-10v13h10q27 0 43.5 20t16.5 70v215z" />
    <glyph glyph-name="bar" unicode="|" horiz-adv-x="75" 
d="M30 -111v871h15v-871h-15z" />
    <glyph glyph-name="braceright" unicode="}" horiz-adv-x="325" 
d="M230 421q0 -50 16.5 -70t43.5 -20h10v-13h-10q-27 0 -43.5 -20t-16.5 -70v-215q0 -65 -29.5 -94.5t-94.5 -29.5h-76v13h10q50 0 70 20t20 70v215q0 50 21 78.5t80 38.5q-59 11 -80 40t-21 78v215q0 50 -20 70t-70 20h-10v13h76q65 0 94.5 -29.5t29.5 -94.5v-215z" />
    <glyph glyph-name="bracketleft" unicode="[" horiz-adv-x="260" 
d="M30 760h200v-13h-100v-845h100v-13h-200v871z" />
    <glyph glyph-name="bracketright" unicode="]" horiz-adv-x="260" 
d="M30 -98h100v845h-100v13h200v-871h-200v13z" />
    <glyph glyph-name="underscore" unicode="_" horiz-adv-x="410" 
d="M30 14h350v-14h-350v14z" />
    <glyph glyph-name="endash" unicode="&#x2013;" horiz-adv-x="360" 
d="M30 357h300v-14h-300v14z" />
    <glyph glyph-name="emdash" unicode="&#x2014;" horiz-adv-x="660" 
d="M30 357h600v-14h-600v14z" />
    <glyph glyph-name="logicalnot" unicode="&#xac;" horiz-adv-x="410" 
d="M30 357h350v-107h-100v93h-250v14z" />
    <glyph glyph-name="macron" unicode="&#xaf;" horiz-adv-x="404" 
d="M26 700h350v-14h-350v14z" />
    <glyph glyph-name="trademark" unicode="&#x2122;" horiz-adv-x="865" 
d="M327 589q0 17 -4 35t-14 32.5t-26.5 24t-41.5 9.5h-24v-286q0 -27 12.5 -36.5t28.5 -9.5v-8h-153v8q15 0 27.5 9.5t12.5 36.5v286h-23q-25 0 -41.5 -9.5t-26.5 -24t-14.5 -32.5t-4.5 -35h-5v111h302v-111h-5zM835 700v-5q-16 0 -23.5 -9.5t-7.5 -36.5v-245
q0 -27 7.5 -36.5t23.5 -9.5v-8h-153v8q15 0 33 9.5t18 36.5v272l-154 -333h-7l-162 308v-237q0 -13 6.5 -23.5t16 -18t20 -11t17.5 -3.5v-8h-111v8q15 0 28 14.5t13 41.5v235q0 27 -8 36.5t-23 9.5v5h100l140 -266l124 266h102z" />
    <glyph glyph-name="registered" unicode="&#xae;" horiz-adv-x="442" 
d="M30 526q0 42 15.5 76t42 58t61 37t72.5 13t72.5 -13t61 -37t42 -58t15.5 -76t-15.5 -76.5t-42 -58.5t-61 -37.5t-72.5 -13.5t-72.5 13.5t-61 37.5t-42 58.5t-15.5 76.5zM86 509q4 -34 17.5 -65t33.5 -53.5t47 -34t58 -7.5t54.5 21.5t38 44.5t20 60t1.5 67
q-4 35 -17.5 65.5t-33.5 52.5t-47 33.5t-58 7.5t-54.5 -21.5t-38 -44.5t-20 -59.5t-1.5 -66.5zM138 428q9 0 13.5 5t4.5 21v144q0 16 -4.5 21t-13.5 5v5h80q17 0 34 -2.5t30.5 -8t22 -14.5t8.5 -23q0 -23 -23 -34.5t-51 -13.5l48 -79q16 -26 32 -26v-5h-91v5q9 0 18 6t1 20
l-48 78h-3v-78q0 -16 7 -21t16 -5v-5h-81v5zM218 539q35 2 46.5 14.5t7.5 34.5q-5 24 -23 29.5t-44 5.5h-9v-84h22z" />
    <glyph glyph-name="copyright" unicode="&#xa9;" horiz-adv-x="800" 
d="M30 350q0 81 30.5 147.5t81.5 113.5t118 73t140 26q74 0 141 -26t118 -73t81 -113.5t30 -147.5t-30 -147.5t-81 -113.5t-118 -73t-141 -26q-73 0 -140 26t-118 73t-81.5 113.5t-30.5 147.5zM137 318q8 -67 34 -126.5t66 -103t92.5 -66.5t112.5 -15q60 7 105.5 41.5
t74 86.5t39 116.5t2.5 130.5q-8 67 -34 126.5t-66 103t-92.5 66.5t-112.5 15q-60 -7 -105.5 -41.5t-74 -86.5t-39 -116.5t-2.5 -130.5zM558 407h-11q-12 60 -29.5 98t-37.5 59.5t-42 28.5t-42 4q-31 -4 -52.5 -25.5t-33 -56.5t-13.5 -81.5t5 -100.5q12 -93 50 -147.5
t101 -54.5q31 0 52.5 14.5t35.5 35t22.5 42.5t12.5 37h11q-6 -25 -15.5 -55t-29 -55t-52 -42t-83.5 -17q-47 0 -85.5 18.5t-66 52.5t-42.5 82t-15 106q0 59 14.5 106.5t43 82t70 53t96.5 18.5q41 0 74.5 -14.5t59.5 -33.5z" />
    <glyph glyph-name="currency" unicode="&#xa4;" horiz-adv-x="539" 
d="M30 350q0 107 54 175l-50 50l11 10l48 -48q32 35 76 54t100 19t100 -19t76 -54l49 49l11 -11l-50 -50q54 -68 54 -175t-54 -175l50 -50l-11 -10l-48 48q-32 -35 -76.5 -54t-100.5 -19t-99 21t-64 66l-62 -62l-10 10l50 50q-54 68 -54 175zM134 333q7 -55 22 -99.5
t36.5 -74.5t48.5 -45t58 -11q32 4 55 25t36.5 55.5t17.5 81t-3 102.5t-22 100t-36.5 74.5t-49 45t-58.5 10.5t-54 -24.5t-36.5 -55t-17.5 -81.5t3 -103z" />
    <glyph glyph-name="cent" unicode="&#xa2;" horiz-adv-x="432" 
d="M385 407h-11q-10 51 -24.5 86.5t-31 57.5t-35 33t-36.5 13v-461q17 -5 33 -5q31 0 52.5 14.5t35.5 35t22.5 42.5t12.5 37h11q-6 -25 -15 -53.5t-27 -53t-48 -42t-77 -20.5v-64h-15v64q-47 0 -85 19t-65 53t-42 81.5t-15 105.5q0 56 13.5 102.5t39.5 80.5t64.5 53.5
t89.5 22.5v64h15v-63q38 0 72 -13t64 -35zM232 598q-2 0 -4.5 -0.5t-4.5 -0.5q-31 -4 -52.5 -25.5t-33 -56.5t-13.5 -81.5t5 -100.5q10 -73 35.5 -123t67.5 -69v457z" />
    <glyph glyph-name="sterling" unicode="&#xa3;" horiz-adv-x="539" 
d="M25 358h70q0 80 7 144.5t29.5 111t64.5 71.5t114 25q29 0 52 -5.5t42.5 -14.5t37.5 -21t36 -25l3 -215h-10q-17 83 -39.5 136t-48 82.5t-53.5 39t-56 6.5q-44 -5 -64 -32t-25 -71.5t0.5 -103.5t11.5 -128h150v-15h-150v-133q0 -33 -1 -62.5t-8 -54t-21.5 -45t-41.5 -35.5
h229q41 0 69.5 18t46.5 42t26 49.5t8 40.5h10v-163h-479v10q30 0 45 18.5t15 71.5v243h-70v15z" />
    <glyph glyph-name="yen" unicode="&#xa5;" horiz-adv-x="717" 
d="M246 690q-59 0 -10 -90l170 -310l139 267q19 37 24.5 62.5t2 41t-15 22.5t-26.5 7v10h177v-10q-30 0 -69.5 -31t-77.5 -105l-141 -268v-37h91v-15h-91v-39h91v-15h-91v-80q0 -26 7 -43.5t18 -28t25.5 -14.5t29.5 -4v-10h-262v10q15 0 29.5 4t25.5 14.5t18 28t7 43.5v80
h-91v15h91v39h-91v15h90l-196 351q-50 90 -110 90v10h236v-10z" />
    <glyph glyph-name="florin" unicode="&#x192;" horiz-adv-x="379" 
d="M79 500q0 32 6.5 69t25.5 68.5t52.5 52t88.5 20.5q33 0 60.5 -14.5t53.5 -33.5l2 -155h-11q-19 60 -34.5 98t-29.5 59t-29 28t-33 5q-33 -4 -46.5 -24.5t-16 -48.5t2 -61t8.5 -63h100v-10h-100v-460q0 -32 -6.5 -69t-25 -68.5t-52.5 -52t-89 -20.5q-33 0 -60.5 14.5
t-53.5 33.5l-2 155h11q19 -60 34.5 -98t29.5 -59t29 -28t33 -5q33 4 46.5 24.5t16 49.5t-2 62t-8.5 63v458h-50v10h50z" />
    <glyph glyph-name="minus" unicode="&#x2212;" horiz-adv-x="406" 
d="M28 358h350v-15h-350v15z" />
    <glyph glyph-name="plusminus" unicode="&#xb1;" horiz-adv-x="406" 
d="M28 385h167v167h15v-167h168v-15h-168v-168h-15v168h-167v15zM28 162h350v-15h-350v15z" />
    <glyph glyph-name="multiply" unicode="&#xd7;" horiz-adv-x="385" 
d="M28 197l153 153l-153 153l11 11l153 -153l154 154l11 -11l-154 -154l154 -154l-11 -11l-154 154l-153 -153z" />
    <glyph glyph-name="divide" unicode="&#xf7;" horiz-adv-x="406" 
d="M124 500q0 35 22 57t57 22t57 -22t22 -57t-22 -57t-57 -22t-57 22t-22 57zM28 358h350v-15h-350v15zM124 200q0 35 22 57t57 22t57 -22t22 -57t-22 -57t-57 -22t-57 22t-22 57z" />
    <glyph glyph-name="brokenbar" unicode="&#xa6;" horiz-adv-x="75" 
d="M30 410v350h15v-350h-15zM30 -111v350h15v-350h-15z" />
    <glyph glyph-name="ellipsis" unicode="&#x2026;" horiz-adv-x="594" 
d="M27 69q0 35 22 57t57 22t57 -22t22 -57t-22 -57t-57 -22t-57 22t-22 57zM218 69q0 35 22 57t57 22t57 -22t22 -57t-22 -57t-57 -22t-57 22t-22 57zM409 69q0 35 22 57t57 22t57 -22t22 -57t-22 -57t-57 -22t-57 22t-22 57z" />
    <glyph glyph-name="periodcentered" unicode="&#xb7;" horiz-adv-x="214" 
d="M28 350q0 35 22 57t57 22t57 -22t22 -57t-22 -57t-57 -22t-57 22t-22 57z" />
    <glyph glyph-name="exclamdown" unicode="&#xa1;" horiz-adv-x="217" 
d="M31 631q0 35 22 57t57 22t57 -22t22 -57t-22 -57t-57 -22t-57 22t-22 57zM161 0h-102l44 500h14z" />
    <glyph glyph-name="questiondown" unicode="&#xbf;" horiz-adv-x="510" 
d="M357 636q0 -35 -22 -57t-57 -22t-57 22t-22 57t22 57t57 22t57 -22t22 -57zM479 61q-18 -13 -45.5 -25t-59 -21t-65.5 -14.5t-65 -5.5q-43 0 -82.5 8.5t-69.5 27.5t-47 48t-16 70q1 47 19.5 77t45.5 53t58 42t57.5 43t44 57t17.5 84h14q0 -54 -14 -93t-34.5 -68.5
t-43.5 -52t-41.5 -45.5t-28.5 -48t-3 -60q5 -27 18 -50.5t31.5 -41.5t41.5 -28t50 -10q15 0 35 5q19 5 42.5 15.5t47.5 38t46.5 77t39.5 132.5h10z" />
    <glyph glyph-name="degree" unicode="&#xb0;" horiz-adv-x="388" 
d="M30 524q0 42 13 76.5t35 58.5t52 37.5t64 13.5t64 -13.5t52 -37.5t35 -58.5t13 -76.5t-13 -76t-35 -58t-52 -37.5t-64 -13.5t-64 13.5t-52 37.5t-35 58t-13 76zM105 511q11 -80 42 -123t74 -34q35 8 53.5 56t8.5 128q-11 80 -42 123t-74 34q-35 -7 -53.5 -55.5
t-8.5 -128.5z" />
    <glyph glyph-name="ordfeminine" unicode="&#xaa;" horiz-adv-x="355" 
d="M237 408q-14 -29 -40.5 -48.5t-71.5 -19.5q-12 0 -27.5 3t-30 11.5t-25.5 24t-14 39.5q-3 26 5.5 45t27.5 32.5t45.5 23t59.5 17.5q38 9 54 25.5t17 41.5q0 33 -9.5 52.5t-23 30t-29.5 13t-29 0.5q-12 -2 -21.5 -7t-20 -19t-22.5 -39.5t-30 -67.5h-8l1 110q19 14 49 24
t59 10q30 0 58 -4.5t49.5 -21t34.5 -48t13 -85.5v-104q0 -38 10.5 -51t32.5 -13v-7l-107 -36h-7v68zM237 556q-17 -14 -41 -22.5t-45 -13.5q-22 -6 -34 -17.5t-17 -25t-4.5 -27t3.5 -22.5q8 -27 25 -38.5t37 -11.5q58 0 76 56v122z" />
    <glyph glyph-name="ordmasculine" unicode="&#xba;" horiz-adv-x="368" 
d="M30 524q0 42 11.5 76.5t31.5 58.5t48.5 37.5t62.5 13.5t62.5 -13.5t48.5 -37.5t31.5 -58.5t11.5 -76.5t-11.5 -76t-31.5 -58t-48.5 -37.5t-62.5 -13.5t-62.5 13.5t-48.5 37.5t-31.5 58t-11.5 76zM105 511q11 -80 37 -123t69 -34q35 8 48.5 56t3.5 128q-11 80 -37 123.5
t-69 34.5q-35 -7 -48.5 -56t-3.5 -129z" />
    <glyph glyph-name="onesuperior" unicode="&#xb9;" horiz-adv-x="203" 
d="M17 358q8 0 17.5 2t17.5 7.5t14 14t6 21.5v219q0 26 -8.5 35.5t-31.5 9.5v8l102 25h8v-297q0 -13 5.5 -21.5t14 -14t18 -7.5t16.5 -2v-8h-179v8z" />
    <glyph glyph-name="twosuperior" unicode="&#xb2;" horiz-adv-x="292" 
d="M271 353h-254v70q0 25 11.5 45.5t29.5 38t40 33t42 31t36 32t23 35.5q5 15 0.5 27.5t-15 21t-25.5 11t-31 -1.5q-10 -3 -21.5 -7.5t-23 -17t-22.5 -36.5t-20 -66h-7l2 108q18 13 52 23t66 10q22 0 43 -4.5t37.5 -13.5t27 -23.5t10.5 -35.5q0 -30 -18 -51t-45.5 -37
t-59 -28.5t-59 -25.5t-45.5 -29t-18 -39h161q21 0 35.5 9t23.5 21.5t13 25.5t4 20h7v-146z" />
    <glyph glyph-name="threesuperior" unicode="&#xb3;" horiz-adv-x="326" 
d="M117 544q31 0 49.5 7t27.5 19t10 28.5t-3 35.5q-10 44 -29.5 55.5t-45.5 8.5q-12 -1 -24.5 -8.5t-23.5 -22.5t-21 -39.5t-18 -61.5h-8l1 110q19 14 47 24t64 10q7 0 28.5 -1.5t44.5 -9.5t41 -26.5t18 -52.5q0 -18 -8 -31.5t-21 -23t-29.5 -16t-32.5 -9.5q23 -3 44.5 -9.5
t37.5 -18t25.5 -28t9.5 -39.5q0 -38 -21 -59t-48 -31t-53.5 -12t-38.5 -2q-35 0 -67 10t-51 24l-2 110h8q8 -37 26 -63.5t40.5 -43t46.5 -22t42 -0.5q14 4 23.5 11t15 18.5t6.5 29t-3 43.5q-4 25 -13.5 40t-24 23t-34 10.5t-43.5 2.5h-3v10h10z" />
    <glyph glyph-name="fraction" unicode="&#x2044;" horiz-adv-x="539" 
d="M20 0l483 700h19l-483 -700h-19z" />
    <glyph glyph-name="onequarter" unicode="&#xbc;" horiz-adv-x="609" 
d="M47 0l483 700h19l-483 -700h-19zM28 358q8 0 17.5 2t17.5 7.5t14 14t6 21.5v219q0 26 -8.5 35.5t-31.5 9.5v8l102 25h8v-297q0 -13 5.5 -21.5t14 -14t18 -7.5t16.5 -2v-8h-179v8zM414 8q15 0 27.5 9.5t12.5 35.5v62h-156v12l219 223h8v-225h1q23 0 35.5 15.5t12.5 34.5h7
v-60h-56v-62q0 -26 7.5 -35.5t22.5 -9.5v-8h-141v8zM454 125v146l-143 -146h143z" />
    <glyph glyph-name="onehalf" unicode="&#xbd;" horiz-adv-x="662" 
d="M47 0l483 700h19l-483 -700h-19zM28 358q8 0 17.5 2t17.5 7.5t14 14t6 21.5v219q0 26 -8.5 35.5t-31.5 9.5v8l102 25h8v-297q0 -13 5.5 -21.5t14 -14t18 -7.5t16.5 -2v-8h-179v8zM633 0h-254v70q0 25 11.5 45.5t29.5 38t40 33t42 31t36 32t23 35.5q5 15 0.5 27.5t-15 21
t-25.5 11t-31 -1.5q-10 -3 -21.5 -7.5t-23 -17t-22.5 -36.5t-20 -66h-7l2 108q18 13 52 23t66 10q22 0 43 -4.5t37.5 -13.5t27 -23.5t10.5 -35.5q0 -30 -18 -51t-45.5 -37t-59 -28.5t-59 -25.5t-45.5 -29t-18 -39h161q21 0 35.5 9t23.5 21.5t13 25.5t4 20h7v-146z" />
    <glyph glyph-name="threequarters" unicode="&#xbe;" horiz-adv-x="693" 
d="M125 544q31 0 49.5 7t27.5 19t10 28.5t-3 35.5q-10 44 -29.5 55.5t-45.5 8.5q-12 -1 -24.5 -8.5t-23.5 -22.5t-21 -39.5t-18 -61.5h-8l1 110q19 14 47 24t64 10q7 0 28.5 -1.5t44.5 -9.5t41 -26.5t18 -52.5q0 -18 -8 -31.5t-21 -23t-29.5 -16t-32.5 -9.5q23 -3 44.5 -9.5
t37.5 -18t25.5 -28t9.5 -39.5q0 -38 -21 -59t-48 -31t-53.5 -12t-38.5 -2q-35 0 -67 10t-51 24l-2 110h8q8 -37 26 -63.5t40.5 -43t46.5 -22t42 -0.5q14 4 23.5 11t15 18.5t6.5 29t-3 43.5q-4 25 -13.5 40t-24 23t-34 10.5t-43.5 2.5h-3v10h10zM131 0l483 700h19l-483 -700
h-19zM498 8q15 0 27.5 9.5t12.5 35.5v62h-156v12l219 223h8v-225h1q23 0 35.5 15.5t12.5 34.5h7v-60h-56v-62q0 -26 7.5 -35.5t22.5 -9.5v-8h-141v8zM538 125v146l-143 -146h143z" />
    <glyph glyph-name="perthousand" unicode="&#x2030;" horiz-adv-x="1064" 
d="M28 524q0 42 11.5 76.5t31.5 58.5t48.5 37.5t62.5 13.5t62.5 -13.5t48.5 -37.5t31.5 -58.5t11.5 -76.5t-11.5 -76t-31.5 -58t-48.5 -37.5t-62.5 -13.5t-62.5 13.5t-48.5 37.5t-31.5 58t-11.5 76zM103 0l483 700h19l-483 -700h-19zM103 511q11 -80 37 -123t69 -34
q35 8 48.5 56t3.5 128q-11 80 -37 123t-69 34q-35 -7 -48.5 -55.5t-3.5 -128.5zM373 174q0 42 11.5 76.5t31.5 58.5t48.5 37.5t62.5 13.5t62.5 -13.5t48.5 -37.5t31.5 -58.5t11.5 -76.5t-11.5 -76t-31.5 -58t-48.5 -37.5t-62.5 -13.5t-62.5 13.5t-48.5 37.5t-31.5 58
t-11.5 76zM728 174q0 42 11.5 76.5t31.5 58.5t48.5 37.5t62.5 13.5t62.5 -13.5t48.5 -37.5t31.5 -58.5t11.5 -76.5t-11.5 -76t-31.5 -58t-48.5 -37.5t-62.5 -13.5t-62.5 13.5t-48.5 37.5t-31.5 58t-11.5 76zM448 161q11 -80 37 -123t69 -34q35 8 48.5 56t3.5 128
q-11 80 -37 123t-69 34q-35 -7 -48.5 -55.5t-3.5 -128.5zM803 161q11 -80 37 -123t69 -34q35 8 48.5 56t3.5 128q-11 80 -37 123t-69 34q-35 -7 -48.5 -55.5t-3.5 -128.5z" />
    <glyph glyph-name="uni03BC" unicode="&#x3bc;" horiz-adv-x="535" 
d="M365 60q-28 -35 -64.5 -52.5t-72.5 -17.5q-29 0 -51 7v-77q0 -26 7 -43.5t18 -28t25.5 -14.5t29.5 -4v-10h-240v10q30 0 45 18.5t15 71.5v440q0 53 -15 71.5t-45 18.5v10l150 50h10v-365q0 -43 9.5 -68t23 -37.5t28.5 -15.5t26 -3q30 0 55 14.5t46 40.5v284
q0 53 -15 71.5t-45 18.5v10l150 50h10v-367q0 -53 15 -71.5t45 -18.5v-10l-150 -50h-10v67z" />
    <glyph glyph-name="paragraph" unicode="&#xb6;" horiz-adv-x="684" 
d="M210 0v10q15 0 29.5 4t25.5 14.5t18 28t7 43.5v230h-15q-58 0 -106.5 11.5t-83.5 35t-54 58t-19 80.5q0 47 20.5 82t56.5 58t85.5 34t107.5 11h292v-600q0 -26 7 -43.5t18 -28t25.5 -14.5t29.5 -4v-10h-182v682h-80v-682h-182z" />
    <glyph glyph-name="section" unicode="&#xa7;" horiz-adv-x="390" 
d="M350 525h-11q-12 60 -31 98t-40.5 59.5t-43 28.5t-39.5 4q-38 -5 -51.5 -23.5t-13.5 -43.5q0 -32 18.5 -57.5t46.5 -47.5t60 -43.5t60 -46.5t46.5 -55t18.5 -70q0 -28 -9.5 -51t-30.5 -40t-54.5 -26.5t-82.5 -9.5q28 -21 59 -41.5t57.5 -44.5t43.5 -53.5t17 -68.5
q0 -63 -43 -92t-128 -29q-20 0 -45 4t-49.5 10.5t-45.5 15.5t-34 18l-2 156h11q12 -60 34 -98.5t48 -60t52.5 -28.5t46.5 -4q22 3 35 9t20.5 15t10 20t2.5 24q0 32 -18.5 57.5t-46.5 47.5t-60 43.5t-60 46.5t-46.5 55t-18.5 70q0 29 10.5 52.5t32 40.5t55.5 26t80 7
q-28 21 -59 42t-57.5 45t-44 53.5t-17.5 68.5q0 63 45 91.5t123 28.5q18 0 38 -4t40 -10.5t38 -15.5t31 -18zM175 213q37 -1 58.5 5.5t32.5 17.5t14 24t3 25q0 29 -15 52t-38 43q-36 4 -57.5 -2t-33 -17t-15.5 -25t-4 -26q0 -29 15.5 -53t39.5 -44z" />
    <glyph glyph-name="dagger" unicode="&#x2020;" horiz-adv-x="457" 
d="M179 0v510h-163v15h163v175h100v-175h162v-15h-162v-510h-100z" />
    <glyph glyph-name="daggerdbl" unicode="&#x2021;" horiz-adv-x="457" 
d="M16 525h163v175h100v-175h162v-15h-162v-320h162v-15h-162v-175h-100v175h-163v15h163v320h-163v15z" />
    <glyph glyph-name="asciitilde" unicode="~" horiz-adv-x="596" 
d="M28 292q0 24 5 54.5t19 56.5t38.5 44t62.5 18t81.5 -21.5t86 -47t82.5 -47t70 -21.5q12 0 26 4t26.5 12.5t21 21.5t8.5 32h13q0 -24 -5 -52.5t-19 -53t-38.5 -41t-62.5 -16.5q-34 0 -75.5 20t-84.5 43.5t-84.5 43.5t-75.5 20q-12 0 -26 -4t-26.5 -12.5t-21 -21.5
t-8.5 -32h-13z" />
    <glyph glyph-name="guilsinglleft" unicode="&#x2039;" horiz-adv-x="340" 
d="M310 182l-270 160v14l270 160v-14l-167 -152l167 -154v-14z" />
    <glyph glyph-name="guilsinglright" unicode="&#x203a;" horiz-adv-x="340" 
d="M197 350l-167 152v14l270 -160v-14l-270 -160v14z" />
    <glyph glyph-name="guillemotleft" unicode="&#xab;" horiz-adv-x="490" 
d="M460 152l-270 190v14l270 190v-14l-167 -182l167 -184v-14zM310 182l-270 160v14l270 160v-14l-167 -152l167 -154v-14z" />
    <glyph glyph-name="guillemotright" unicode="&#xbb;" horiz-adv-x="500" 
d="M207 350l-167 182v14l270 -190v-14l-270 -190v14zM357 350l-167 152v14l270 -160v-14l-270 -160v14z" />
    <glyph glyph-name="caron" unicode="&#x2c7;" horiz-adv-x="349" 
d="M174 603l132 97h15l-140 -199h-15l-140 199h15z" />
    <glyph glyph-name="dotlessi" unicode="&#x131;" 
d="M17 10q30 0 45 18.5t15 71.5v250q0 53 -15 71.5t-45 18.5v10l150 50h10v-400q0 -53 15 -71.5t45 -18.5v-10h-220v10z" />
    <glyph glyph-name="grave" unicode="`" 
d="M26 700h100l90 -199h-15z" />
    <glyph glyph-name="circumflex" unicode="&#x2c6;" horiz-adv-x="349" 
d="M26 501l140 199h15l140 -199h-15l-132 97l-133 -97h-15z" />
    <glyph glyph-name="dieresis" unicode="&#xa8;" horiz-adv-x="364" 
d="M26 645q0 29 18 47t47 18t47 -18t18 -47t-18 -47t-47 -18t-47 18t-18 47zM206 645q0 29 18 47t47 18t47 -18t18 -47t-18 -47t-47 -18t-47 18t-18 47z" />
    <glyph glyph-name="dotaccent" unicode="&#x2d9;" horiz-adv-x="184" 
d="M26 645q0 29 18 47t47 18t47 -18t18 -47t-18 -47t-47 -18t-47 18t-18 47z" />
    <glyph glyph-name="acute" unicode="&#xb4;" 
d="M26 501l90 199h100l-175 -199h-15z" />
    <glyph glyph-name="hungarumlaut" unicode="&#x2dd;" horiz-adv-x="384" 
d="M26 501l90 199h100l-175 -199h-15zM166 501l90 199h100l-175 -199h-15z" />
    <glyph glyph-name="ring" unicode="&#x2da;" horiz-adv-x="274" 
d="M26 600q0 50 30 80t80 30t80 -30t30 -80t-30 -80t-80 -30t-80 30t-30 80zM81 593q5 -47 23.5 -68.5t43.5 -18.5q24 3 36.5 28t6.5 73q-5 47 -23.5 68.5t-43.5 18.5q-24 -3 -36.5 -28t-6.5 -73z" />
    <glyph glyph-name="breve" unicode="&#x2d8;" horiz-adv-x="272" 
d="M245 700q0 -25 -8 -46.5t-22.5 -38t-34.5 -26t-45 -9.5t-45 9.5t-34.5 26t-22.5 38t-8 46.5h10q0 -26 26 -45.5t74 -19.5t74 19.5t26 45.5h10z" />
    <glyph glyph-name="ogonek" unicode="&#x2db;" horiz-adv-x="258" 
d="M68 -76q0 -22 8 -37t20 -24.5t25.5 -13.5t25.5 -4q28 1 46 14t25 30h12q-7 -28 -33.5 -47t-71.5 -19q-19 0 -39 6t-36.5 18t-26.5 29t-10 39q0 27 13 45.5t32.5 30t42.5 16t44 3.5v-10q-15 1 -29 -4.5t-24.5 -16t-17 -25t-6.5 -30.5z" />
    <glyph glyph-name="cedilla" unicode="&#xb8;" horiz-adv-x="281" 
d="M198 -122q0 15 -7 28.5t-18 24t-25 16.5t-29 7h-15l40 53h15l-32 -43q21 -1 43 -6t40.5 -15.5t30.5 -27t12 -39.5q0 -21 -10 -37.5t-26.5 -28t-36 -17.5t-39.5 -6q-45 0 -74 19t-41 47h12q12 -17 32.5 -29.5t48.5 -14.5q32 -2 55.5 15.5t23.5 53.5z" />
    <glyph glyph-name="eth" unicode="&#xf0;" horiz-adv-x="601" 
d="M592 297q-11 -161 -82.5 -234.5t-204.5 -73.5q-66 0 -118 17t-88 47.5t-55 74t-19 96.5t19 97t55 75.5t88 49t118 17.5q54 0 99.5 -16.5t87.5 -60.5q-5 61 -28.5 111.5t-61.5 88.5l-72 -67l-10 10l72 66q-47 44 -105.5 68.5t-119.5 29.5v17q74 0 142 -19t125 -56l74 68
l10 -10l-72 -67q72 -52 113 -134t33 -195zM487 207q9 50 2.5 92t-25.5 73.5t-49 51t-68 24.5q-37 5 -71.5 -7.5t-63 -40t-49 -68t-30.5 -91.5q-9 -50 -4 -91.5t22.5 -72.5t46.5 -49.5t66 -23.5q38 -5 73.5 7t65.5 39t52 67t32 90z" />
    <glyph glyph-name="fi" unicode="&#xfb01;" horiz-adv-x="602" 
d="M19 10q30 0 45 18.5t15 71.5v390h-50v10h50q0 32 6.5 69t25.5 68.5t52.5 52t88.5 20.5q33 0 60.5 -14.5t53.5 -33.5l2 -155h-11q-19 60 -34.5 98t-29.5 59t-29 28t-33 5q-33 -4 -46.5 -24.5t-16 -48.5t2 -61t8.5 -63h100v-10h-100v-390q0 -26 7 -43.5t18 -28t25.5 -14.5
t29.5 -4v-10h-240v10zM408 645q0 29 18 47t47 18t47 -18t18 -47t-18 -47t-47 -18t-47 18t-18 47zM363 10q30 0 45 18.5t15 71.5v250q0 53 -15 71.5t-45 18.5v10l150 50h10v-400q0 -53 15 -71.5t45 -18.5v-10h-220v10z" />
    <glyph glyph-name="fl" unicode="&#xfb02;" horiz-adv-x="602" 
d="M19 10q30 0 45 18.5t15 71.5v390h-50v10h50v30q0 32 3 64.5t17.5 58t43 41.5t79.5 16q33 0 60.5 -14.5t53.5 -33.5l2 -155h-11q-19 60 -34.5 98t-29.5 59t-29 28t-33 5q-33 -4 -42 -24.5t-6 -48.5t12.5 -61t13.5 -63h70v-10h-70v-390q0 -26 7 -43.5t18 -28t25.5 -14.5
t29.5 -4v-10h-240v10zM363 10q30 0 45 18.5t15 71.5v480q0 53 -15 71.5t-45 18.5v10l150 50h10v-630q0 -53 15 -71.5t45 -18.5v-10h-220v10z" />
    <glyph glyph-name="Thorn" unicode="&#xde;" horiz-adv-x="603" 
d="M28 10q30 0 45 18.5t15 71.5v500q0 53 -15 71.5t-45 18.5v10h242v-10q-15 0 -29.5 -4t-25.5 -14.5t-18 -28t-7 -43.5v-65h108q59 0 111.5 -11t92 -34t63 -58t23.5 -82q0 -46 -22.5 -80.5t-60.5 -58t-89.5 -35t-110.5 -11.5h-115v-65q0 -26 7 -43.5t18 -28t25.5 -14.5
t29.5 -4v-10h-242v10zM300 178q60 4 98.5 21t59.5 44t26 61t-2 72q-7 40 -27 68t-49.5 45t-67.5 25t-82 8h-66v-344h110z" />
    <glyph glyph-name="thorn" unicode="&#xfe;" horiz-adv-x="521" 
d="M17 -170q30 0 45 18.5t15 71.5v660q0 53 -15 71.5t-45 18.5v10l150 50h10v-272q14 26 38 39.5t62 13.5q44 0 83.5 -16t69.5 -48t48 -81t18 -115t-17.5 -115t-47 -81t-67 -48t-77.5 -16q-33 0 -61.5 15t-48.5 47v-133q0 -26 7 -43.5t18 -28t25.5 -14.5t29.5 -4v-10h-240
v10zM177 143q20 -75 56 -111t74 -28q20 4 38 22t30.5 50.5t17.5 80.5t-1 111t-22 108t-37 72.5t-43.5 39t-42.5 8.5q-22 -4 -39.5 -18.5t-30.5 -43.5v-291z" />
    <glyph glyph-name="germandbls" unicode="&#xdf;" horiz-adv-x="660" 
d="M28 10q30 0 45 18.5t15 71.5v400q0 32 14.5 69t42.5 68.5t69.5 52t96.5 20.5q32 0 67.5 -6t83.5 -24q16 -6 25.5 -17t12.5 -24t0 -25t-12 -21l-221 -210h29q77 0 140 -9t107.5 -31t68.5 -58.5t24 -91.5q0 -52 -23 -88.5t-66 -59.5t-105 -34t-139 -11h-57v13h52
q71 0 119.5 15t76 42t35.5 65t-1 84q-10 49 -32 78.5t-56.5 45.5t-81 21.5t-104.5 5.5h-8v13l123 117q24 23 34 42t12 34.5t-2 27t-8 18.5q-16 26 -30.5 42t-28 24t-27.5 9.5t-29 -0.5q-33 -4 -53.5 -24.5t-31.5 -49.5t-14.5 -62t-2.5 -63v-498h-160v10z" />
    <glyph glyph-name="Agrave" unicode="&#xc0;" horiz-adv-x="680" 
d="M403 10q15 0 29.5 4t24.5 14.5t12.5 28t-6.5 43.5l-28 84l-275 1l-21 -58q-11 -29 -4.5 -51t21.5 -36.5t34 -22t34 -7.5v-10h-214v10q30 0 61.5 29t53.5 88l25 68v3h1l145 395l-10 30q29 21 43.5 40.5t22.5 48.5h11l207 -612q17 -52 43.5 -71t56.5 -19v-10h-267v10z
M430 197l-127 376l-138 -375zM157 960h100l90 -199h-15z" />
    <glyph glyph-name="Aacute" unicode="&#xc1;" horiz-adv-x="680" 
d="M403 10q15 0 29.5 4t24.5 14.5t12.5 28t-6.5 43.5l-28 84l-275 1l-21 -58q-11 -29 -4.5 -51t21.5 -36.5t34 -22t34 -7.5v-10h-214v10q30 0 61.5 29t53.5 88l25 68v3h1l145 395l-10 30q29 21 43.5 40.5t22.5 48.5h11l207 -612q17 -52 43.5 -71t56.5 -19v-10h-267v10z
M430 197l-127 376l-138 -375zM332 761l90 199h100l-175 -199h-15z" />
    <glyph glyph-name="Acircumflex" unicode="&#xc2;" horiz-adv-x="680" 
d="M403 10q15 0 29.5 4t24.5 14.5t12.5 28t-6.5 43.5l-28 84l-275 1l-21 -58q-11 -29 -4.5 -51t21.5 -36.5t34 -22t34 -7.5v-10h-214v10q30 0 61.5 29t53.5 88l25 68v3h1l145 395l-10 30q29 21 43.5 40.5t22.5 48.5h11l207 -612q17 -52 43.5 -71t56.5 -19v-10h-267v10z
M430 197l-127 376l-138 -375zM192 761l140 199h15l140 -199h-15l-132 97l-133 -97h-15z" />
    <glyph glyph-name="Atilde" unicode="&#xc3;" horiz-adv-x="680" 
d="M403 10q15 0 29.5 4t24.5 14.5t12.5 28t-6.5 43.5l-28 84l-275 1l-21 -58q-11 -29 -4.5 -51t21.5 -36.5t34 -22t34 -7.5v-10h-214v10q30 0 61.5 29t53.5 88l25 68v3h1l145 395l-10 30q29 21 43.5 40.5t22.5 48.5h11l207 -612q17 -52 43.5 -71t56.5 -19v-10h-267v10z
M430 197l-127 376l-138 -375zM170 787q0 24 4.5 48t16 43t29.5 30.5t45 11.5q34 0 57.5 -15t42.5 -33.5t35 -33.5t35 -15q23 0 38.5 16t23.5 54h13q0 -24 -4.5 -46.5t-16 -39.5t-29.5 -27t-45 -10q-30 0 -52 13.5t-40.5 30t-36.5 30t-41 13.5t-38.5 -16t-23.5 -54h-13z" />
    <glyph glyph-name="Adieresis" unicode="&#xc4;" horiz-adv-x="680" 
d="M403 10q15 0 29.5 4t24.5 14.5t12.5 28t-6.5 43.5l-28 84l-275 1l-21 -58q-11 -29 -4.5 -51t21.5 -36.5t34 -22t34 -7.5v-10h-214v10q30 0 61.5 29t53.5 88l25 68v3h1l145 395l-10 30q29 21 43.5 40.5t22.5 48.5h11l207 -612q17 -52 43.5 -71t56.5 -19v-10h-267v10z
M430 197l-127 376l-138 -375zM185 825q0 29 18 47t47 18t47 -18t18 -47t-18 -47t-47 -18t-47 18t-18 47zM365 825q0 29 18 47t47 18t47 -18t18 -47t-18 -47t-47 -18t-47 18t-18 47z" />
    <glyph glyph-name="Aring" unicode="&#xc5;" horiz-adv-x="680" 
d="M403 10q15 0 29.5 4t24.5 14.5t12.5 28t-6.5 43.5l-28 84l-275 1l-21 -58q-11 -29 -4.5 -51t21.5 -36.5t34 -22t34 -7.5v-10h-214v10q30 0 61.5 29t53.5 88l25 68v3h1l145 395l-10 30q29 21 43.5 40.5t22.5 48.5h11l207 -612q17 -52 43.5 -71t56.5 -19v-10h-267v10z
M430 197l-127 376l-138 -375zM230 870q0 50 30 80t80 30t80 -30t30 -80t-30 -80t-80 -30t-80 30t-30 80zM285 863q5 -47 23.5 -68.5t43.5 -18.5q24 3 36.5 28t6.5 73q-5 47 -23.5 68.5t-43.5 18.5q-24 -3 -36.5 -28t-6.5 -73z" />
    <glyph glyph-name="AE" unicode="&#xc6;" horiz-adv-x="967" 
d="M10 10q15 0 35.5 8t42 23t42 37t35.5 49l308 547q-8 9 -18.5 12.5t-24.5 3.5v10h499v-163h-10q0 15 -8 40.5t-26 49.5t-46.5 42t-69.5 18h-177v-304h157q26 0 43.5 8.5t28 21.5t14.5 29t4 31h10v-193h-10q0 15 -4 31t-14.5 29t-28 21.5t-43.5 8.5h-157v-357h197
q41 0 69.5 18t46.5 42t26 49.5t8 40.5h10v-163h-519v10q30 0 45 18.5t15 71.5v84l-278 1v1l-33 -59q-15 -27 -15.5 -49t8 -37t23 -23t29.5 -8v-10h-214v10zM490 197v403q0 43 -10 62l-261 -464z" />
    <glyph glyph-name="Ccedilla" unicode="&#xc7;" horiz-adv-x="591" 
d="M534 429h-10q-16 78 -39 129.5t-50 81.5t-55.5 42t-55.5 12q-39 0 -75 -24t-63 -65t-42.5 -96.5t-14.5 -118.5q0 -35 7 -74t21 -77.5t35 -73t48.5 -61t62 -42.5t75.5 -16q47 0 79.5 20t53.5 48.5t32.5 59t17.5 51.5h14q-8 -35 -20.5 -76t-38 -76t-67 -58.5t-107.5 -23.5
q-70 0 -128 25.5t-99 73t-64 113.5t-23 147t22 147.5t63 113.5t99.5 73t130.5 26q57 0 104.5 -20t83.5 -46zM393 -122q0 15 -7 28.5t-18 24t-25 16.5t-29 7h-15l40 53h15l-32 -43q21 -1 43 -6t40.5 -15.5t30.5 -27t12 -39.5q0 -21 -10 -37.5t-26.5 -28t-36 -17.5t-39.5 -6
q-45 0 -74 19t-41 47h12q12 -17 32.5 -29.5t48.5 -14.5q32 -2 55.5 15.5t23.5 53.5z" />
    <glyph glyph-name="Eth" unicode="&#xd0;" horiz-adv-x="686" 
d="M48 10q30 0 45 18.5t15 71.5v243h-80v15h80v242q0 53 -15 71.5t-45 18.5v10h270q77 0 140 -24.5t107.5 -69.5t68.5 -110t24 -146t-23 -146t-66 -110t-105 -69.5t-139 -24.5h-277v10zM320 14q71 5 119.5 33.5t76 75.5t35.5 111.5t-1 141.5q-20 155 -89 233t-185 78h-66
v-329h80v-15h-80v-330h52z" />
    <glyph glyph-name="Dcroat" unicode="&#x110;" horiz-adv-x="648" 
d="M17 10q30 0 45 18.5t15 71.5v243h-80v15h80v242q0 53 -15 71.5t-45 18.5v10h270q77 0 140 -24.5t107.5 -69.5t68.5 -110t24 -146t-23 -146t-66 -110t-105 -69.5t-139 -24.5h-277v10zM289 14q71 5 119.5 33.5t76 75.5t35.5 111.5t-1 141.5q-20 155 -89 233t-185 78h-66
v-329h80v-15h-80v-330h52z" />
    <glyph glyph-name="Egrave" unicode="&#xc8;" horiz-adv-x="565" 
d="M28 10q30 0 45 18.5t15 71.5v500q0 53 -15 71.5t-45 18.5v10h499v-163h-10q0 15 -8 40.5t-26 49.5t-46.5 42t-69.5 18h-177v-304h157q26 0 43.5 8.5t28 21.5t14.5 29t4 31h10v-193h-10q0 15 -4 31t-14.5 29t-28 21.5t-43.5 8.5h-157v-357h197q41 0 69.5 18t46.5 42
t26 49.5t8 40.5h10v-163h-519v10zM105 948h100l90 -199h-15z" />
    <glyph glyph-name="Eacute" unicode="&#xc9;" horiz-adv-x="565" 
d="M28 10q30 0 45 18.5t15 71.5v500q0 53 -15 71.5t-45 18.5v10h499v-163h-10q0 15 -8 40.5t-26 49.5t-46.5 42t-69.5 18h-177v-304h157q26 0 43.5 8.5t28 21.5t14.5 29t4 31h10v-193h-10q0 15 -4 31t-14.5 29t-28 21.5t-43.5 8.5h-157v-357h197q41 0 69.5 18t46.5 42
t26 49.5t8 40.5h10v-163h-519v10zM280 749l90 199h100l-175 -199h-15z" />
    <glyph glyph-name="Ecircumflex" unicode="&#xca;" horiz-adv-x="565" 
d="M28 10q30 0 45 18.5t15 71.5v500q0 53 -15 71.5t-45 18.5v10h499v-163h-10q0 15 -8 40.5t-26 49.5t-46.5 42t-69.5 18h-177v-304h157q26 0 43.5 8.5t28 21.5t14.5 29t4 31h10v-193h-10q0 15 -4 31t-14.5 29t-28 21.5t-43.5 8.5h-157v-357h197q41 0 69.5 18t46.5 42
t26 49.5t8 40.5h10v-163h-519v10zM140 749l140 199h15l140 -199h-15l-132 97l-133 -97h-15z" />
    <glyph glyph-name="Edieresis" unicode="&#xcb;" horiz-adv-x="565" 
d="M28 10q30 0 45 18.5t15 71.5v500q0 53 -15 71.5t-45 18.5v10h499v-163h-10q0 15 -8 40.5t-26 49.5t-46.5 42t-69.5 18h-177v-304h157q26 0 43.5 8.5t28 21.5t14.5 29t4 31h10v-193h-10q0 15 -4 31t-14.5 29t-28 21.5t-43.5 8.5h-157v-357h197q41 0 69.5 18t46.5 42
t26 49.5t8 40.5h10v-163h-519v10zM133 813q0 29 18 47t47 18t47 -18t18 -47t-18 -47t-47 -18t-47 18t-18 47zM313 813q0 29 18 47t47 18t47 -18t18 -47t-18 -47t-47 -18t-47 18t-18 47z" />
    <glyph glyph-name="Igrave" unicode="&#xcc;" horiz-adv-x="278" 
d="M28 10q30 0 45 18.5t15 71.5v500q0 53 -15 71.5t-45 18.5v10h222v-10q-30 0 -45 -18.5t-15 -71.5v-500q0 -53 15 -71.5t45 -18.5v-10h-222v10zM-44 950h100l90 -199h-15z" />
    <glyph glyph-name="Iacute" unicode="&#xcd;" horiz-adv-x="278" 
d="M28 10q30 0 45 18.5t15 71.5v500q0 53 -15 71.5t-45 18.5v10h222v-10q-30 0 -45 -18.5t-15 -71.5v-500q0 -53 15 -71.5t45 -18.5v-10h-222v10zM131 751l90 199h100l-175 -199h-15z" />
    <glyph glyph-name="Icircumflex" unicode="&#xce;" horiz-adv-x="278" 
d="M28 10q30 0 45 18.5t15 71.5v500q0 53 -15 71.5t-45 18.5v10h222v-10q-30 0 -45 -18.5t-15 -71.5v-500q0 -53 15 -71.5t45 -18.5v-10h-222v10zM-9 751l140 199h15l140 -199h-15l-132 97l-133 -97h-15z" />
    <glyph glyph-name="Idieresis" unicode="&#xcf;" horiz-adv-x="278" 
d="M28 10q30 0 45 18.5t15 71.5v500q0 53 -15 71.5t-45 18.5v10h222v-10q-30 0 -45 -18.5t-15 -71.5v-500q0 -53 15 -71.5t45 -18.5v-10h-222v10zM-16 815q0 29 18 47t47 18t47 -18t18 -47t-18 -47t-47 -18t-47 18t-18 47zM164 815q0 29 18 47t47 18t47 -18t18 -47t-18 -47
t-47 -18t-47 18t-18 47z" />
    <glyph glyph-name="Lslash" unicode="&#x141;" horiz-adv-x="500" 
d="M492 0h-499v10q30 0 45 18.5t15 71.5v200l-97 -68l-8 12l105 74v282q0 53 -15 71.5t-45 18.5v10h242v-10q-15 0 -29.5 -4t-25.5 -14.5t-18 -28t-7 -43.5v-211l113 79l8 -12l-121 -85v-358h177q41 0 69.5 18t46.5 42t26 49.5t8 40.5h10v-163z" />
    <glyph glyph-name="Ntilde" unicode="&#xd1;" horiz-adv-x="689" 
d="M578 0l-456 611v-491q0 -26 10 -46.5t25 -34.5t32.5 -21.5t32.5 -7.5v-10h-194v10q30 0 55 28.5t25 81.5v480q0 53 -15 71.5t-45 18.5v10h134l396 -530v410q0 26 -10 46.5t-25 34.5t-32.5 21.5t-32.5 7.5v10h194v-10q-30 0 -55 -28.5t-25 -81.5v-580h-14zM180 777
q0 24 4.5 48t16 43t29.5 30.5t45 11.5q34 0 57.5 -15t42.5 -33.5t35 -33.5t35 -15q23 0 38.5 16t23.5 54h13q0 -24 -4.5 -46.5t-16 -39.5t-29.5 -27t-45 -10q-30 0 -52 13.5t-40.5 30t-36.5 30t-41 13.5t-38.5 -16t-23.5 -54h-13z" />
    <glyph glyph-name="Ograve" unicode="&#xd2;" horiz-adv-x="696" 
d="M28 350q0 81 22.5 147.5t64 113.5t101 73t132.5 26q74 0 133 -26t100.5 -73t64 -113.5t22.5 -147.5t-22.5 -147.5t-64 -113.5t-100.5 -73t-133 -26q-73 0 -132.5 26t-101 73t-64 113.5t-22.5 147.5zM131 415q0 -38 5 -83t16.5 -90.5t30 -87.5t44.5 -75t60.5 -52.5
t78.5 -19.5q58 0 96.5 31t61 76.5t32 97t9.5 92.5q0 36 -5.5 78.5t-17.5 85.5t-31 83.5t-45.5 72t-61 50.5t-78.5 19q-54 0 -91.5 -26.5t-60.5 -67t-33 -90t-10 -94.5zM165 956h100l90 -199h-15z" />
    <glyph glyph-name="Oacute" unicode="&#xd3;" horiz-adv-x="696" 
d="M28 350q0 81 22.5 147.5t64 113.5t101 73t132.5 26q74 0 133 -26t100.5 -73t64 -113.5t22.5 -147.5t-22.5 -147.5t-64 -113.5t-100.5 -73t-133 -26q-73 0 -132.5 26t-101 73t-64 113.5t-22.5 147.5zM131 415q0 -38 5 -83t16.5 -90.5t30 -87.5t44.5 -75t60.5 -52.5
t78.5 -19.5q58 0 96.5 31t61 76.5t32 97t9.5 92.5q0 36 -5.5 78.5t-17.5 85.5t-31 83.5t-45.5 72t-61 50.5t-78.5 19q-54 0 -91.5 -26.5t-60.5 -67t-33 -90t-10 -94.5zM340 757l90 199h100l-175 -199h-15z" />
    <glyph glyph-name="Ocircumflex" unicode="&#xd4;" horiz-adv-x="696" 
d="M28 350q0 81 22.5 147.5t64 113.5t101 73t132.5 26q74 0 133 -26t100.5 -73t64 -113.5t22.5 -147.5t-22.5 -147.5t-64 -113.5t-100.5 -73t-133 -26q-73 0 -132.5 26t-101 73t-64 113.5t-22.5 147.5zM131 415q0 -38 5 -83t16.5 -90.5t30 -87.5t44.5 -75t60.5 -52.5
t78.5 -19.5q58 0 96.5 31t61 76.5t32 97t9.5 92.5q0 36 -5.5 78.5t-17.5 85.5t-31 83.5t-45.5 72t-61 50.5t-78.5 19q-54 0 -91.5 -26.5t-60.5 -67t-33 -90t-10 -94.5zM200 757l140 199h15l140 -199h-15l-132 97l-133 -97h-15z" />
    <glyph glyph-name="Otilde" unicode="&#xd5;" horiz-adv-x="696" 
d="M28 350q0 81 22.5 147.5t64 113.5t101 73t132.5 26q74 0 133 -26t100.5 -73t64 -113.5t22.5 -147.5t-22.5 -147.5t-64 -113.5t-100.5 -73t-133 -26q-73 0 -132.5 26t-101 73t-64 113.5t-22.5 147.5zM131 415q0 -38 5 -83t16.5 -90.5t30 -87.5t44.5 -75t60.5 -52.5
t78.5 -19.5q58 0 96.5 31t61 76.5t32 97t9.5 92.5q0 36 -5.5 78.5t-17.5 85.5t-31 83.5t-45.5 72t-61 50.5t-78.5 19q-54 0 -91.5 -26.5t-60.5 -67t-33 -90t-10 -94.5zM178 783q0 24 4.5 48t16 43t29.5 30.5t45 11.5q34 0 57.5 -15t42.5 -33.5t35 -33.5t35 -15q23 0 38.5 16
t23.5 54h13q0 -24 -4.5 -46.5t-16 -39.5t-29.5 -27t-45 -10q-30 0 -52 13.5t-40.5 30t-36.5 30t-41 13.5t-38.5 -16t-23.5 -54h-13z" />
    <glyph glyph-name="Odieresis" unicode="&#xd6;" horiz-adv-x="696" 
d="M28 350q0 81 22.5 147.5t64 113.5t101 73t132.5 26q74 0 133 -26t100.5 -73t64 -113.5t22.5 -147.5t-22.5 -147.5t-64 -113.5t-100.5 -73t-133 -26q-73 0 -132.5 26t-101 73t-64 113.5t-22.5 147.5zM131 415q0 -38 5 -83t16.5 -90.5t30 -87.5t44.5 -75t60.5 -52.5
t78.5 -19.5q58 0 96.5 31t61 76.5t32 97t9.5 92.5q0 36 -5.5 78.5t-17.5 85.5t-31 83.5t-45.5 72t-61 50.5t-78.5 19q-54 0 -91.5 -26.5t-60.5 -67t-33 -90t-10 -94.5zM193 821q0 29 18 47t47 18t47 -18t18 -47t-18 -47t-47 -18t-47 18t-18 47zM373 821q0 29 18 47t47 18
t47 -18t18 -47t-18 -47t-47 -18t-47 18t-18 47z" />
    <glyph glyph-name="Oslash" unicode="&#xd8;" horiz-adv-x="696" 
d="M28 350q0 81 22.5 147.5t64 113.5t101 73t132.5 26q92 0 161 -40l37 69h15l-40 -76q70 -45 108.5 -125t38.5 -188q0 -81 -22.5 -147.5t-64 -113.5t-100.5 -73t-133 -26q-92 0 -162 41l-37 -70h-15l41 76q-70 45 -108.5 125.5t-38.5 187.5zM136 324q8 -69 27 -124t46 -97
l269 507q-34 45 -77.5 66.5t-94.5 15.5q-49 -6 -85 -35.5t-58 -77.5t-29 -113t2 -142zM218 91q34 -46 77.5 -67.5t94.5 -15.5q49 6 85 35.5t58 77.5t29 113t-2 142q-18 139 -74 222z" />
    <glyph glyph-name="OE" unicode="&#x152;" horiz-adv-x="885" 
d="M348 0q-73 0 -132.5 24.5t-101 69.5t-64 110t-22.5 146t22.5 146t64 110t101 69.5t132.5 24.5h499v-163h-10q0 15 -8 40.5t-26 49.5t-46.5 42t-69.5 18h-177v-304h157q26 0 43.5 8.5t28 21.5t14.5 29t4 31h10v-193h-10q0 15 -4 31t-14.5 29t-28 21.5t-43.5 8.5h-157v-357
h197q41 0 69.5 18t46.5 42t26 49.5t8 40.5h10v-163h-519zM348 15q30 -2 45 19t15 74v484q0 53 -15 72.5t-45 20.5q-11 1 -21 0t-21 -3q-49 -6 -85 -34t-58 -74.5t-29 -109.5t2 -140q17 -138 73.5 -219.5t138.5 -89.5z" />
    <glyph glyph-name="Scaron" unicode="&#x160;" horiz-adv-x="552" 
d="M495 429h-10q-16 75 -43.5 126t-61 81.5t-69 44t-66.5 13.5q-19 0 -38 -5.5t-34 -17t-24.5 -28t-9.5 -37.5q0 -37 28 -68t70.5 -60.5t92 -60.5t92 -67.5t70.5 -81.5t28 -103q0 -46 -18 -79t-49 -54.5t-72 -31.5t-88 -10q-32 0 -69.5 5.5t-73.5 14.5t-66.5 21t-48.5 25
l-3 215h10q16 -76 46.5 -126.5t67.5 -81t76.5 -43.5t72.5 -13q23 0 46 7t41 21t29.5 34t11.5 46q0 49 -28 87t-70.5 71.5t-92 64t-92 63.5t-70.5 70.5t-28 84.5q0 41 15.5 70t43.5 48t65.5 27.5t80.5 8.5q31 0 65 -5.5t65.5 -14.5t59 -21t45.5 -25zM266 862l132 97h15
l-140 -199h-15l-140 199h15z" />
    <glyph glyph-name="Ugrave" unicode="&#xd9;" horiz-adv-x="666" 
d="M571 280q0 -70 -10 -124t-35.5 -91t-68.5 -56t-109 -19q-73 0 -124 16.5t-83 51.5t-46 90t-14 132v320q0 53 -15 71.5t-45 18.5v10h242v-10q-15 0 -29.5 -4t-25.5 -14.5t-18 -28t-7 -43.5v-320q0 -48 9.5 -94.5t31.5 -83t58.5 -59t91.5 -22.5q58 0 94 18.5t56 52t27 81.5
t7 107v300q0 26 -10 46.5t-25 34.5t-32.5 21.5t-32.5 7.5v10h193v-10q-30 0 -55 -28.5t-25 -81.5v-300zM153 948h100l90 -199h-15z" />
    <glyph glyph-name="Uacute" unicode="&#xda;" horiz-adv-x="666" 
d="M571 280q0 -70 -10 -124t-35.5 -91t-68.5 -56t-109 -19q-73 0 -124 16.5t-83 51.5t-46 90t-14 132v320q0 53 -15 71.5t-45 18.5v10h242v-10q-15 0 -29.5 -4t-25.5 -14.5t-18 -28t-7 -43.5v-320q0 -48 9.5 -94.5t31.5 -83t58.5 -59t91.5 -22.5q58 0 94 18.5t56 52t27 81.5
t7 107v300q0 26 -10 46.5t-25 34.5t-32.5 21.5t-32.5 7.5v10h193v-10q-30 0 -55 -28.5t-25 -81.5v-300zM328 749l90 199h100l-175 -199h-15z" />
    <glyph glyph-name="Ucircumflex" unicode="&#xdb;" horiz-adv-x="666" 
d="M571 280q0 -70 -10 -124t-35.5 -91t-68.5 -56t-109 -19q-73 0 -124 16.5t-83 51.5t-46 90t-14 132v320q0 53 -15 71.5t-45 18.5v10h242v-10q-15 0 -29.5 -4t-25.5 -14.5t-18 -28t-7 -43.5v-320q0 -48 9.5 -94.5t31.5 -83t58.5 -59t91.5 -22.5q58 0 94 18.5t56 52t27 81.5
t7 107v300q0 26 -10 46.5t-25 34.5t-32.5 21.5t-32.5 7.5v10h193v-10q-30 0 -55 -28.5t-25 -81.5v-300zM188 749l140 199h15l140 -199h-15l-132 97l-133 -97h-15z" />
    <glyph glyph-name="Udieresis" unicode="&#xdc;" horiz-adv-x="666" 
d="M571 280q0 -70 -10 -124t-35.5 -91t-68.5 -56t-109 -19q-73 0 -124 16.5t-83 51.5t-46 90t-14 132v320q0 53 -15 71.5t-45 18.5v10h242v-10q-15 0 -29.5 -4t-25.5 -14.5t-18 -28t-7 -43.5v-320q0 -48 9.5 -94.5t31.5 -83t58.5 -59t91.5 -22.5q58 0 94 18.5t56 52t27 81.5
t7 107v300q0 26 -10 46.5t-25 34.5t-32.5 21.5t-32.5 7.5v10h193v-10q-30 0 -55 -28.5t-25 -81.5v-300zM181 813q0 29 18 47t47 18t47 -18t18 -47t-18 -47t-47 -18t-47 18t-18 47zM361 813q0 29 18 47t47 18t47 -18t18 -47t-18 -47t-47 -18t-47 18t-18 47z" />
    <glyph glyph-name="Ydieresis" unicode="&#x178;" horiz-adv-x="717" 
d="M246 690q-59 0 -10 -90l170 -310l139 267q19 36 24.5 61.5t2 41.5t-15 23t-26.5 7v10h177v-10q-30 0 -69.5 -31.5t-77.5 -104.5l-141 -268v-186q0 -26 7 -43.5t18 -28t25.5 -14.5t29.5 -4v-10h-262v10q15 0 29.5 4t25.5 14.5t18 28t7 43.5v147l-197 353q-50 90 -110 90
v10h236v-10zM224 815q0 29 18 47t47 18t47 -18t18 -47t-18 -47t-47 -18t-47 18t-18 47zM404 815q0 29 18 47t47 18t47 -18t18 -47t-18 -47t-47 -18t-47 18t-18 47z" />
    <glyph glyph-name="Yacute" unicode="&#xdd;" horiz-adv-x="717" 
d="M246 690q-59 0 -10 -90l170 -310l139 267q19 36 24.5 61.5t2 41.5t-15 23t-26.5 7v10h177v-10q-30 0 -69.5 -31.5t-77.5 -104.5l-141 -268v-186q0 -26 7 -43.5t18 -28t25.5 -14.5t29.5 -4v-10h-262v10q15 0 29.5 4t25.5 14.5t18 28t7 43.5v147l-197 353q-50 90 -110 90
v10h236v-10zM371 751l90 199h100l-175 -199h-15z" />
    <glyph glyph-name="Zcaron" unicode="&#x17d;" horiz-adv-x="552" 
d="M366 13q41 0 69.5 18t46.5 42t26 49.5t8 40.5h10v-163h-496v43l377 644h-197q-41 0 -69.5 -18t-46.5 -42t-26 -49.5t-8 -40.5h-10v163h456v-43l-377 -644h237zM278 851l132 97h15l-140 -199h-15l-140 199h15z" />
    <glyph glyph-name="agrave" unicode="&#xe0;" horiz-adv-x="483" 
d="M323 85q-20 -40 -57 -67.5t-100 -27.5q-30 0 -55 8.5t-43.5 24.5t-29 40t-10.5 55q0 32 14 55t40 40t62 29.5t79 22.5q54 13 76.5 36.5t23.5 58.5q-1 41 -11.5 67.5t-27 42.5t-35.5 22t-36 6q-33 0 -56.5 -21t-41 -50.5t-30 -62.5t-22.5 -57h-11l2 155q26 19 68 33.5
t83 14.5q42 0 81.5 -6.5t69.5 -29.5t48.5 -67.5t18.5 -120.5v-146q0 -53 15 -71.5t45 -18.5v-10l-150 -50h-10v95zM323 294q-24 -18 -57.5 -28.5t-62.5 -18.5q-23 -6 -38 -17t-24 -25t-12.5 -29t-3.5 -29q0 -47 27 -75.5t69 -27.5q45 0 67 19.5t35 48.5v182zM42 760h100
l90 -199h-15z" />
    <glyph glyph-name="aacute" unicode="&#xe1;" horiz-adv-x="483" 
d="M323 85q-20 -40 -57 -67.5t-100 -27.5q-30 0 -55 8.5t-43.5 24.5t-29 40t-10.5 55q0 32 14 55t40 40t62 29.5t79 22.5q54 13 76.5 36.5t23.5 58.5q-1 41 -11.5 67.5t-27 42.5t-35.5 22t-36 6q-33 0 -56.5 -21t-41 -50.5t-30 -62.5t-22.5 -57h-11l2 155q26 19 68 33.5
t83 14.5q42 0 81.5 -6.5t69.5 -29.5t48.5 -67.5t18.5 -120.5v-146q0 -53 15 -71.5t45 -18.5v-10l-150 -50h-10v95zM323 294q-24 -18 -57.5 -28.5t-62.5 -18.5q-23 -6 -38 -17t-24 -25t-12.5 -29t-3.5 -29q0 -47 27 -75.5t69 -27.5q45 0 67 19.5t35 48.5v182zM217 561l90 199
h100l-175 -199h-15z" />
    <glyph glyph-name="acircumflex" unicode="&#xe2;" horiz-adv-x="483" 
d="M323 85q-20 -40 -57 -67.5t-100 -27.5q-30 0 -55 8.5t-43.5 24.5t-29 40t-10.5 55q0 32 14 55t40 40t62 29.5t79 22.5q54 13 76.5 36.5t23.5 58.5q-1 41 -11.5 67.5t-27 42.5t-35.5 22t-36 6q-33 0 -56.5 -21t-41 -50.5t-30 -62.5t-22.5 -57h-11l2 155q26 19 68 33.5
t83 14.5q42 0 81.5 -6.5t69.5 -29.5t48.5 -67.5t18.5 -120.5v-146q0 -53 15 -71.5t45 -18.5v-10l-150 -50h-10v95zM323 294q-24 -18 -57.5 -28.5t-62.5 -18.5q-23 -6 -38 -17t-24 -25t-12.5 -29t-3.5 -29q0 -47 27 -75.5t69 -27.5q45 0 67 19.5t35 48.5v182zM77 561l140 199
h15l140 -199h-15l-132 97l-133 -97h-15z" />
    <glyph glyph-name="atilde" unicode="&#xe3;" horiz-adv-x="483" 
d="M323 85q-20 -40 -57 -67.5t-100 -27.5q-30 0 -55 8.5t-43.5 24.5t-29 40t-10.5 55q0 32 14 55t40 40t62 29.5t79 22.5q54 13 76.5 36.5t23.5 58.5q-1 41 -11.5 67.5t-27 42.5t-35.5 22t-36 6q-33 0 -56.5 -21t-41 -50.5t-30 -62.5t-22.5 -57h-11l2 155q26 19 68 33.5
t83 14.5q42 0 81.5 -6.5t69.5 -29.5t48.5 -67.5t18.5 -120.5v-146q0 -53 15 -71.5t45 -18.5v-10l-150 -50h-10v95zM323 294q-24 -18 -57.5 -28.5t-62.5 -18.5q-23 -6 -38 -17t-24 -25t-12.5 -29t-3.5 -29q0 -47 27 -75.5t69 -27.5q45 0 67 19.5t35 48.5v182zM55 587
q0 24 4.5 48t16 43t29.5 30.5t45 11.5q34 0 57.5 -15t42.5 -33.5t35 -33.5t35 -15q23 0 38.5 16t23.5 54h13q0 -24 -4.5 -46.5t-16 -39.5t-29.5 -27t-45 -10q-30 0 -52 13.5t-40.5 30t-36.5 30t-41 13.5t-38.5 -16t-23.5 -54h-13z" />
    <glyph glyph-name="adieresis" unicode="&#xe4;" horiz-adv-x="483" 
d="M323 85q-20 -40 -57 -67.5t-100 -27.5q-30 0 -55 8.5t-43.5 24.5t-29 40t-10.5 55q0 32 14 55t40 40t62 29.5t79 22.5q54 13 76.5 36.5t23.5 58.5q-1 41 -11.5 67.5t-27 42.5t-35.5 22t-36 6q-33 0 -56.5 -21t-41 -50.5t-30 -62.5t-22.5 -57h-11l2 155q26 19 68 33.5
t83 14.5q42 0 81.5 -6.5t69.5 -29.5t48.5 -67.5t18.5 -120.5v-146q0 -53 15 -71.5t45 -18.5v-10l-150 -50h-10v95zM323 294q-24 -18 -57.5 -28.5t-62.5 -18.5q-23 -6 -38 -17t-24 -25t-12.5 -29t-3.5 -29q0 -47 27 -75.5t69 -27.5q45 0 67 19.5t35 48.5v182zM70 625
q0 29 18 47t47 18t47 -18t18 -47t-18 -47t-47 -18t-47 18t-18 47zM250 625q0 29 18 47t47 18t47 -18t18 -47t-18 -47t-47 -18t-47 18t-18 47z" />
    <glyph glyph-name="aring" unicode="&#xe5;" horiz-adv-x="483" 
d="M323 85q-20 -40 -57 -67.5t-100 -27.5q-30 0 -55 8.5t-43.5 24.5t-29 40t-10.5 55q0 32 14 55t40 40t62 29.5t79 22.5q54 13 76.5 36.5t23.5 58.5q-1 41 -11.5 67.5t-27 42.5t-35.5 22t-36 6q-33 0 -56.5 -21t-41 -50.5t-30 -62.5t-22.5 -57h-11l2 155q26 19 68 33.5
t83 14.5q42 0 81.5 -6.5t69.5 -29.5t48.5 -67.5t18.5 -120.5v-146q0 -53 15 -71.5t45 -18.5v-10l-150 -50h-10v95zM323 294q-24 -18 -57.5 -28.5t-62.5 -18.5q-23 -6 -38 -17t-24 -25t-12.5 -29t-3.5 -29q0 -47 27 -75.5t69 -27.5q45 0 67 19.5t35 48.5v182zM115 670
q0 50 30 80t80 30t80 -30t30 -80t-30 -80t-80 -30t-80 30t-30 80zM170 663q5 -47 23.5 -68.5t43.5 -18.5q24 3 36.5 28t6.5 73q-5 47 -23.5 68.5t-43.5 18.5q-24 -3 -36.5 -28t-6.5 -73z" />
    <glyph glyph-name="ae" unicode="&#xe6;" horiz-adv-x="739" 
d="M54 462q26 19 68 33.5t83 14.5q26 0 51 -2t48 -9t43 -19t35 -33q26 30 60.5 46.5t78.5 16.5q48 0 81.5 -18.5t55 -53t31.5 -82t10 -106.5h-273q0 -5 0.5 -8.5t0.5 -8.5q4 -46 16 -83.5t30 -63.5t41.5 -40.5t49.5 -14.5q32 0 56.5 14.5t41.5 35t27 42.5t13 37h12
q-5 -22 -14 -51.5t-28.5 -56t-53 -44.5t-87.5 -18q-66 0 -116 38.5t-74 106.5q-7 -28 -20 -54t-34 -46t-50.5 -32.5t-70.5 -12.5q-17 0 -39 4t-42 16t-35.5 33.5t-20.5 55.5q-5 37 7.5 63.5t39 45.5t64 32.5t83.5 24.5q53 13 76 36.5t24 58.5q-1 46 -14 74t-32.5 43t-41 19
t-39.5 1q-17 -3 -30.5 -10.5t-28 -27.5t-32 -56t-42.5 -96h-11zM597 260q-1 35 -5 80.5t-14.5 83.5t-31 60.5t-55.5 12.5q-40 -11 -56 -73.5t-10 -163.5h172zM323 294q-24 -18 -57.5 -28.5t-62.5 -18.5q-31 -8 -48 -25.5t-24 -37t-6 -39t5 -32.5q12 -38 35.5 -53.5
t51.5 -15.5q22 0 42 7q21 7 34 17t21 23t13.5 28t9.5 31q-14 47 -14 100v44z" />
    <glyph glyph-name="ccedilla" unicode="&#xe7;" horiz-adv-x="424" 
d="M385 307h-11q-12 60 -29.5 98t-37.5 59.5t-42 28.5t-42 4q-31 -4 -52.5 -25.5t-33 -56.5t-13.5 -81.5t5 -100.5q12 -93 50 -147.5t101 -54.5q31 0 52.5 14.5t35.5 35t22.5 42.5t12.5 37h11q-6 -25 -15.5 -55t-29 -55t-52 -42t-83.5 -17q-47 0 -85.5 18.5t-66 52.5
t-42.5 82t-15 106q0 59 14.5 106.5t43 82t70 53t96.5 18.5q41 0 74.5 -14.5t59.5 -33.5zM289 -122q0 15 -7 28.5t-18 24t-25 16.5t-29 7h-15l40 53h15l-32 -43q21 -1 43 -6t40.5 -15.5t30.5 -27t12 -39.5q0 -21 -10 -37.5t-26.5 -28t-36 -17.5t-39.5 -6q-45 0 -74 19t-41 47
h12q12 -17 32.5 -29.5t48.5 -14.5q32 -2 55.5 15.5t23.5 53.5z" />
    <glyph glyph-name="dcroat" unicode="&#x111;" horiz-adv-x="498" 
d="M323 43q-14 -26 -38 -39.5t-62 -13.5q-43 0 -83 16t-70 48t-48 81t-18 115t18 115t47 81t66.5 48t77.5 16q33 0 61.5 -15t48.5 -47v116h-80v14h80v2q0 53 -15 71.5t-45 18.5v10l150 50h10v-152h80v-14h-80v-424q0 -53 15 -71.5t45 -18.5v-10l-150 -50h-10v53zM323 358
q-20 75 -56 111t-74 28q-20 -4 -38 -22t-30.5 -50.5t-17.5 -80.5t1 -111t22 -108t37 -72.5t44 -39t42 -8.5q22 4 39.5 18.5t30.5 43.5v291z" />
    <glyph glyph-name="egrave" unicode="&#xe8;" horiz-adv-x="430" 
d="M128 250q0 -5 0.5 -8.5t0.5 -8.5q4 -46 16 -83.5t30 -63.5t41.5 -40.5t49.5 -14.5q32 0 56.5 14.5t41.5 35t27 42.5t13 37h12q-5 -22 -14 -51.5t-28.5 -56t-53 -44.5t-87.5 -18q-45 0 -83.5 18.5t-66 53t-43 82.5t-15.5 106q0 59 13.5 106.5t39 82t62 53t83.5 18.5
q48 0 81.5 -18.5t55 -53t31.5 -82t10 -106.5h-273zM299 260q-1 35 -5 80.5t-14.5 83.5t-31 60.5t-55.5 12.5q-40 -11 -56 -73.5t-10 -163.5h172zM28 760h100l90 -199h-15z" />
    <glyph glyph-name="eacute" unicode="&#xe9;" horiz-adv-x="430" 
d="M128 250q0 -5 0.5 -8.5t0.5 -8.5q4 -46 16 -83.5t30 -63.5t41.5 -40.5t49.5 -14.5q32 0 56.5 14.5t41.5 35t27 42.5t13 37h12q-5 -22 -14 -51.5t-28.5 -56t-53 -44.5t-87.5 -18q-45 0 -83.5 18.5t-66 53t-43 82.5t-15.5 106q0 59 13.5 106.5t39 82t62 53t83.5 18.5
q48 0 81.5 -18.5t55 -53t31.5 -82t10 -106.5h-273zM299 260q-1 35 -5 80.5t-14.5 83.5t-31 60.5t-55.5 12.5q-40 -11 -56 -73.5t-10 -163.5h172zM203 561l90 199h100l-175 -199h-15z" />
    <glyph glyph-name="ecircumflex" unicode="&#xea;" horiz-adv-x="430" 
d="M128 250q0 -5 0.5 -8.5t0.5 -8.5q4 -46 16 -83.5t30 -63.5t41.5 -40.5t49.5 -14.5q32 0 56.5 14.5t41.5 35t27 42.5t13 37h12q-5 -22 -14 -51.5t-28.5 -56t-53 -44.5t-87.5 -18q-45 0 -83.5 18.5t-66 53t-43 82.5t-15.5 106q0 59 13.5 106.5t39 82t62 53t83.5 18.5
q48 0 81.5 -18.5t55 -53t31.5 -82t10 -106.5h-273zM299 260q-1 35 -5 80.5t-14.5 83.5t-31 60.5t-55.5 12.5q-40 -11 -56 -73.5t-10 -163.5h172zM63 561l140 199h15l140 -199h-15l-132 97l-133 -97h-15z" />
    <glyph glyph-name="edieresis" unicode="&#xeb;" horiz-adv-x="430" 
d="M128 250q0 -5 0.5 -8.5t0.5 -8.5q4 -46 16 -83.5t30 -63.5t41.5 -40.5t49.5 -14.5q32 0 56.5 14.5t41.5 35t27 42.5t13 37h12q-5 -22 -14 -51.5t-28.5 -56t-53 -44.5t-87.5 -18q-45 0 -83.5 18.5t-66 53t-43 82.5t-15.5 106q0 59 13.5 106.5t39 82t62 53t83.5 18.5
q48 0 81.5 -18.5t55 -53t31.5 -82t10 -106.5h-273zM299 260q-1 35 -5 80.5t-14.5 83.5t-31 60.5t-55.5 12.5q-40 -11 -56 -73.5t-10 -163.5h172zM56 625q0 29 18 47t47 18t47 -18t18 -47t-18 -47t-47 -18t-47 18t-18 47zM236 625q0 29 18 47t47 18t47 -18t18 -47t-18 -47
t-47 -18t-47 18t-18 47z" />
    <glyph glyph-name="igrave" unicode="&#xec;" 
d="M17 10q30 0 45 18.5t15 71.5v250q0 53 -15 71.5t-45 18.5v10l150 50h10v-400q0 -53 15 -71.5t45 -18.5v-10h-220v10zM-66 750h100l90 -199h-15z" />
    <glyph glyph-name="iacute" unicode="&#xed;" 
d="M17 10q30 0 45 18.5t15 71.5v250q0 53 -15 71.5t-45 18.5v10l150 50h10v-400q0 -53 15 -71.5t45 -18.5v-10h-220v10zM109 551l90 199h100l-175 -199h-15z" />
    <glyph glyph-name="icircumflex" unicode="&#xee;" 
d="M17 10q30 0 45 18.5t15 71.5v250q0 53 -15 71.5t-45 18.5v10l150 50h10v-400q0 -53 15 -71.5t45 -18.5v-10h-220v10zM-31 551l140 199h15l140 -199h-15l-132 97l-133 -97h-15z" />
    <glyph glyph-name="idieresis" unicode="&#xef;" 
d="M17 10q30 0 45 18.5t15 71.5v250q0 53 -15 71.5t-45 18.5v10l150 50h10v-400q0 -53 15 -71.5t45 -18.5v-10h-220v10zM-38 615q0 29 18 47t47 18t47 -18t18 -47t-18 -47t-47 -18t-47 18t-18 47zM142 615q0 29 18 47t47 18t47 -18t18 -47t-18 -47t-47 -18t-47 18t-18 47z
" />
    <glyph glyph-name="lslash" unicode="&#x142;" horiz-adv-x="258" 
d="M19 10q30 0 45 18.5t15 71.5v201l-63 -50l-8 11l71 57v261q0 53 -15 71.5t-45 18.5v10l150 50h10v-331l63 50l8 -11l-71 -57v-281q0 -53 15 -71.5t45 -18.5v-10h-220v10z" />
    <glyph glyph-name="ntilde" unicode="&#xf1;" horiz-adv-x="532" 
d="M305 10q30 0 45 18.5t15 71.5v258q0 43 -9.5 67.5t-23 36.5t-28.5 14.5t-26 2.5q-30 0 -55 -13.5t-46 -39.5v-326q0 -53 15 -71.5t45 -18.5v-10h-220v10q30 0 45 18.5t15 71.5v260q0 53 -15 71.5t-45 18.5v10l150 50h10v-68q28 35 64.5 51.5t72.5 16.5q68 0 109.5 -40
t41.5 -132v-238q0 -53 15 -71.5t45 -18.5v-10h-220v10zM111 586q0 24 4.5 48t16 43t29.5 30.5t45 11.5q34 0 57.5 -15t42.5 -33.5t35 -33.5t35 -15q23 0 38.5 16t23.5 54h13q0 -24 -4.5 -46.5t-16 -39.5t-29.5 -27t-45 -10q-30 0 -52 13.5t-40.5 30t-36.5 30t-41 13.5
t-38.5 -16t-23.5 -54h-13z" />
    <glyph glyph-name="ograve" unicode="&#xf2;" horiz-adv-x="529" 
d="M25 250q0 59 17 106.5t48 82t75 53t99 18.5t99 -18.5t75.5 -53t48.5 -82t17 -106.5q0 -58 -17 -106t-48.5 -82.5t-75.5 -53t-99 -18.5t-99 18.5t-75 53t-48 82.5t-17 106zM129 233q7 -55 22 -99.5t36.5 -74.5t48.5 -45t58 -11q32 4 55 25t36.5 55.5t17.5 81t-3 102.5
t-22 100t-36.5 74.5t-49 45t-58.5 10.5t-54 -24.5t-36.5 -55t-17.5 -81.5t3 -103zM82 760h100l90 -199h-15z" />
    <glyph glyph-name="oacute" unicode="&#xf3;" horiz-adv-x="529" 
d="M25 250q0 59 17 106.5t48 82t75 53t99 18.5t99 -18.5t75.5 -53t48.5 -82t17 -106.5q0 -58 -17 -106t-48.5 -82.5t-75.5 -53t-99 -18.5t-99 18.5t-75 53t-48 82.5t-17 106zM129 233q7 -55 22 -99.5t36.5 -74.5t48.5 -45t58 -11q32 4 55 25t36.5 55.5t17.5 81t-3 102.5
t-22 100t-36.5 74.5t-49 45t-58.5 10.5t-54 -24.5t-36.5 -55t-17.5 -81.5t3 -103zM257 561l90 199h100l-175 -199h-15z" />
    <glyph glyph-name="ocircumflex" unicode="&#xf4;" horiz-adv-x="529" 
d="M25 250q0 59 17 106.5t48 82t75 53t99 18.5t99 -18.5t75.5 -53t48.5 -82t17 -106.5q0 -58 -17 -106t-48.5 -82.5t-75.5 -53t-99 -18.5t-99 18.5t-75 53t-48 82.5t-17 106zM129 233q7 -55 22 -99.5t36.5 -74.5t48.5 -45t58 -11q32 4 55 25t36.5 55.5t17.5 81t-3 102.5
t-22 100t-36.5 74.5t-49 45t-58.5 10.5t-54 -24.5t-36.5 -55t-17.5 -81.5t3 -103zM117 561l140 199h15l140 -199h-15l-132 97l-133 -97h-15z" />
    <glyph glyph-name="otilde" unicode="&#xf5;" horiz-adv-x="529" 
d="M25 250q0 59 17 106.5t48 82t75 53t99 18.5t99 -18.5t75.5 -53t48.5 -82t17 -106.5q0 -58 -17 -106t-48.5 -82.5t-75.5 -53t-99 -18.5t-99 18.5t-75 53t-48 82.5t-17 106zM129 233q7 -55 22 -99.5t36.5 -74.5t48.5 -45t58 -11q32 4 55 25t36.5 55.5t17.5 81t-3 102.5
t-22 100t-36.5 74.5t-49 45t-58.5 10.5t-54 -24.5t-36.5 -55t-17.5 -81.5t3 -103zM95 587q0 24 4.5 48t16 43t29.5 30.5t45 11.5q34 0 57.5 -15t42.5 -33.5t35 -33.5t35 -15q23 0 38.5 16t23.5 54h13q0 -24 -4.5 -46.5t-16 -39.5t-29.5 -27t-45 -10q-30 0 -52 13.5t-40.5 30
t-36.5 30t-41 13.5t-38.5 -16t-23.5 -54h-13z" />
    <glyph glyph-name="odieresis" unicode="&#xf6;" horiz-adv-x="529" 
d="M25 250q0 59 17 106.5t48 82t75 53t99 18.5t99 -18.5t75.5 -53t48.5 -82t17 -106.5q0 -58 -17 -106t-48.5 -82.5t-75.5 -53t-99 -18.5t-99 18.5t-75 53t-48 82.5t-17 106zM129 233q7 -55 22 -99.5t36.5 -74.5t48.5 -45t58 -11q32 4 55 25t36.5 55.5t17.5 81t-3 102.5
t-22 100t-36.5 74.5t-49 45t-58.5 10.5t-54 -24.5t-36.5 -55t-17.5 -81.5t3 -103zM110 625q0 29 18 47t47 18t47 -18t18 -47t-18 -47t-47 -18t-47 18t-18 47zM290 625q0 29 18 47t47 18t47 -18t18 -47t-18 -47t-47 -18t-47 18t-18 47z" />
    <glyph glyph-name="oslash" unicode="&#xf8;" horiz-adv-x="529" 
d="M25 250q0 59 17 106.5t48 82t75 53t99 18.5q65 0 118 -28l28 52h15l-32 -58q53 -32 82 -90t29 -136q0 -58 -17 -106t-48.5 -82.5t-75.5 -53t-99 -18.5q-67 0 -118 28l-28 -51h-15l31 58q-52 32 -80.5 89.5t-28.5 135.5zM129 233q10 -85 40 -144l183 337q-23 38 -53 57
t-65 14q-31 -4 -54 -24.5t-36.5 -55t-17.5 -81.5t3 -103zM177 75q23 -38 52.5 -57.5t64.5 -14.5q32 4 55 25t36.5 55.5t17.5 81t-3 102.5q-11 87 -41 145z" />
    <glyph glyph-name="oe" unicode="&#x153;" horiz-adv-x="819" 
d="M25 250q0 59 17 106.5t48 82t75 53t99 18.5q59 0 105.5 -21.5t78.5 -60.5q26 39 64 60.5t89 21.5q48 0 81.5 -18.5t55 -53t31.5 -82t10 -106.5h-273q0 -5 0.5 -8.5t0.5 -8.5q4 -46 16 -83.5t30 -63.5t41.5 -40.5t49.5 -14.5q32 0 56.5 14.5t41.5 35t27 42.5t13 37h12
q-5 -22 -14 -51.5t-28.5 -56t-53 -44.5t-87.5 -18q-51 0 -91.5 22.5t-68.5 63.5q-32 -41 -79.5 -63.5t-107.5 -22.5q-55 0 -99 18.5t-75 53t-48 82.5t-17 106zM677 260q-1 35 -5 80.5t-14.5 83.5t-31 60.5t-55.5 12.5q-40 -11 -56 -73.5t-10 -163.5h172zM129 233
q7 -55 22 -99.5t36.5 -74.5t48.5 -45t58 -11q32 4 55 25t36.5 55.5t17.5 81t-3 102.5t-22 100t-36.5 74.5t-49 45t-58.5 10.5t-54 -24.5t-36.5 -55t-17.5 -81.5t3 -103z" />
    <glyph glyph-name="scaron" unicode="&#x161;" horiz-adv-x="392" 
d="M352 307h-11q-12 60 -31 98t-40.5 59.5t-43 28.5t-39.5 4q-38 -5 -51.5 -23.5t-13.5 -43.5q0 -32 18.5 -57.5t46.5 -47.5t60 -43.5t60 -46.5t46.5 -55t18.5 -70q0 -63 -43 -91.5t-128 -28.5q-20 0 -45 4t-49.5 10.5t-45.5 15.5t-34 18l-2 155h11q12 -60 34 -98t48 -59.5
t52.5 -28.5t46.5 -4q22 3 35 9t20.5 15t10 20t2.5 23q0 33 -18.5 58t-46.5 47t-60 43.5t-60 46.5t-46.5 55t-18.5 70q0 63 45 91.5t123 28.5q18 0 38 -4t40 -10.5t38 -15.5t31 -18zM199 661l132 97h15l-140 -199h-15l-140 199h15z" />
    <glyph glyph-name="ugrave" unicode="&#xf9;" horiz-adv-x="532" 
d="M365 60q-28 -35 -64.5 -52.5t-72.5 -17.5q-34 0 -61.5 10t-47.5 31.5t-31 54.5t-11 79v195q0 53 -15 71.5t-45 18.5v10l150 50h10v-365q0 -43 9.5 -68t23 -37.5t28.5 -15.5t26 -3q30 0 55 14.5t46 40.5v284q0 53 -15 71.5t-45 18.5v10l150 50h10v-370q0 -53 15 -71.5
t45 -18.5v-10l-150 -50h-10v70zM88 759h100l90 -199h-15z" />
    <glyph glyph-name="uacute" unicode="&#xfa;" horiz-adv-x="532" 
d="M365 60q-28 -35 -64.5 -52.5t-72.5 -17.5q-34 0 -61.5 10t-47.5 31.5t-31 54.5t-11 79v195q0 53 -15 71.5t-45 18.5v10l150 50h10v-365q0 -43 9.5 -68t23 -37.5t28.5 -15.5t26 -3q30 0 55 14.5t46 40.5v284q0 53 -15 71.5t-45 18.5v10l150 50h10v-370q0 -53 15 -71.5
t45 -18.5v-10l-150 -50h-10v70zM263 560l90 199h100l-175 -199h-15z" />
    <glyph glyph-name="ucircumflex" unicode="&#xfb;" horiz-adv-x="532" 
d="M365 60q-28 -35 -64.5 -52.5t-72.5 -17.5q-34 0 -61.5 10t-47.5 31.5t-31 54.5t-11 79v195q0 53 -15 71.5t-45 18.5v10l150 50h10v-365q0 -43 9.5 -68t23 -37.5t28.5 -15.5t26 -3q30 0 55 14.5t46 40.5v284q0 53 -15 71.5t-45 18.5v10l150 50h10v-370q0 -53 15 -71.5
t45 -18.5v-10l-150 -50h-10v70zM123 560l140 199h15l140 -199h-15l-132 97l-133 -97h-15z" />
    <glyph glyph-name="udieresis" unicode="&#xfc;" horiz-adv-x="532" 
d="M365 60q-28 -35 -64.5 -52.5t-72.5 -17.5q-34 0 -61.5 10t-47.5 31.5t-31 54.5t-11 79v195q0 53 -15 71.5t-45 18.5v10l150 50h10v-365q0 -43 9.5 -68t23 -37.5t28.5 -15.5t26 -3q30 0 55 14.5t46 40.5v284q0 53 -15 71.5t-45 18.5v10l150 50h10v-370q0 -53 15 -71.5
t45 -18.5v-10l-150 -50h-10v70zM116 624q0 29 18 47t47 18t47 -18t18 -47t-18 -47t-47 -18t-47 18t-18 47zM296 624q0 29 18 47t47 18t47 -18t18 -47t-18 -47t-47 -18t-47 18t-18 47z" />
    <glyph glyph-name="yacute" unicode="&#xfd;" horiz-adv-x="516" 
d="M516 499v-10q-15 0 -32 -8t-32.5 -23t-29.5 -36t-23 -47l-131 -385q-17 -50 -29 -82.5t-24 -52t-26.5 -27.5t-36.5 -8q-32 0 -60 14.5t-54 33.5l-2 155h11q24 -50 41.5 -85.5t30 -58.5t22.5 -34t20 -11q15 0 25.5 9t20 28t20 48.5t26.5 70.5l-156 410q-20 53 -40 71.5
t-50 18.5v10h228v-10q-30 0 -39.5 -18.5t9.5 -71.5l98 -262l80 237q18 53 3 83.5t-45 30.5v10h175zM284 551l90 199h100l-175 -199h-15z" />
    <glyph glyph-name="ydieresis" unicode="&#xff;" horiz-adv-x="516" 
d="M516 499v-10q-15 0 -32 -8t-32.5 -23t-29.5 -36t-23 -47l-131 -385q-17 -50 -29 -82.5t-24 -52t-26.5 -27.5t-36.5 -8q-32 0 -60 14.5t-54 33.5l-2 155h11q24 -50 41.5 -85.5t30 -58.5t22.5 -34t20 -11q15 0 25.5 9t20 28t20 48.5t26.5 70.5l-156 410q-20 53 -40 71.5
t-50 18.5v10h228v-10q-30 0 -39.5 -18.5t9.5 -71.5l98 -262l80 237q18 53 3 83.5t-45 30.5v10h175zM137 615q0 29 18 47t47 18t47 -18t18 -47t-18 -47t-47 -18t-47 18t-18 47zM317 615q0 29 18 47t47 18t47 -18t18 -47t-18 -47t-47 -18t-47 18t-18 47z" />
    <glyph glyph-name="zcaron" unicode="&#x17e;" horiz-adv-x="438" 
d="M253 13q41 0 69.5 18t46.5 42t26 49.5t8 40.5h10v-163h-388v33l264 454h-84q-41 0 -69.5 -18t-46.5 -42t-26 -49.5t-8 -40.5h-10v163h348v-33l-264 -454h124zM219 651l132 97h15l-140 -199h-15l-140 199h15z" />
    </font>
</defs>
</svg>
